<svg version="1.1" id="Layer_1" xmlns="http://www.w3.org/2000/svg" xmlns:xlink="http://www.w3.org/1999/xlink" x="0px" y="0px"
	 width="100%" viewBox="0 0 650 500" enable-background="new 0 0 650 500" xml:space="preserve">
<path fill="#00BF2D" opacity="1.000000" stroke="none"
	d="
M268.000000,248.940109
	C233.012482,249.001831 198.522369,248.826752 164.038193,249.199768
	C132.731705,249.538406 101.434097,250.677322 70.127655,251.052963
	C56.152992,251.220657 42.164673,250.429016 28.186789,249.949280
	C26.183823,249.880539 24.204813,249.113815 22.214714,248.670120
	C22.156067,248.172394 22.097420,247.674652 22.038773,247.176926
	C23.703979,246.462341 25.315882,245.310379 27.042532,245.099945
	C47.167797,242.647079 67.264648,239.796936 87.456612,238.085281
	C157.265366,232.167664 227.243561,233.676071 297.180695,234.194901
	C336.151184,234.483978 375.113922,235.699463 414.083527,236.264801
	C449.726074,236.781876 485.373413,236.964340 521.018250,237.335831
	C543.003906,237.564972 564.989441,237.831192 586.973389,238.181351
	C590.936462,238.244461 594.891724,238.796539 599.122070,239.145248
	C596.968811,235.444717 594.851746,232.181396 593.161865,228.710144
	C592.521484,227.394669 592.208618,224.753235 592.906738,224.211655
	C594.112610,223.276138 596.487854,222.831512 597.906067,223.382233
	C601.728027,224.866440 605.781921,226.408829 608.872681,228.976654
	C614.362427,233.537552 619.317200,238.768112 624.288513,243.918549
	C627.883423,247.643021 627.318726,250.735168 622.516785,252.867996
	C611.110413,257.934357 599.586609,262.736877 588.097961,267.617157
	C587.343689,267.937592 586.406067,268.330383 585.689819,268.149750
	C582.517578,267.349762 579.395020,266.352509 576.254517,265.426666
	C577.469849,262.869781 578.389587,260.104187 579.998718,257.825409
	C581.178833,256.154236 583.263367,255.121704 585.933350,253.030136
	C582.885071,253.030136 580.835632,253.043915 578.786499,253.028091
	C524.812805,252.611710 470.837402,252.342163 416.866089,251.720490
	C381.061523,251.308075 345.262787,250.387878 309.461334,249.701157
	C295.807739,249.439255 282.153778,249.194580 268.000000,248.940109
z"/>
<path fill="#FBFBFC" opacity="1.000000" stroke="none"
	d="
M205.447647,458.667206
	C194.287384,460.421997 186.035324,456.001678 180.130310,447.153595
	C177.771698,443.619507 175.609833,442.850708 171.231888,443.589172
	C147.677536,447.562164 124.810135,445.646667 105.021889,430.881714
	C73.171371,407.116608 71.080482,361.148529 100.152527,332.859039
	C111.881310,321.445953 125.519012,313.750885 142.130936,311.763397
	C148.663422,310.981781 155.029785,308.235931 161.539032,307.957703
	C174.478989,307.404633 185.962097,312.447388 196.231522,319.976776
	C216.676620,334.966888 230.016769,354.661469 234.024323,379.958588
	C237.446655,401.561523 228.056168,417.368042 210.356461,428.860870
	C205.915695,431.744354 201.064606,433.995911 196.478760,436.496094
	C199.505310,443.678131 202.608368,451.041718 205.447647,458.667206
M159.945618,413.587067
	C158.034027,408.816803 155.786697,404.147156 154.317657,399.244293
	C153.154251,395.361542 154.817001,391.998291 158.486572,389.997559
	C162.088104,388.033936 165.421021,388.931366 167.940399,391.858704
	C170.198181,394.482117 172.163254,397.411499 173.913055,400.407104
	C177.912796,407.254547 181.701920,414.225037 186.161407,422.190125
	C193.824112,418.066833 201.452560,414.720795 208.233490,410.124420
	C217.051132,404.147522 221.085876,395.140442 219.224304,384.539673
	C214.535141,357.837128 198.590149,339.710388 174.423080,328.658997
	C165.618484,324.632721 155.846420,322.277588 146.235016,324.632477
	C131.094040,328.342163 118.723595,336.918488 109.120239,349.276306
	C92.836960,370.230011 95.952652,400.928833 116.164406,415.739838
	C131.028656,426.632233 148.150772,427.222900 166.270233,425.621246
	C164.085541,421.514191 162.160660,417.895569 159.945618,413.587067
z"/>
<path fill="#FAFAFB" opacity="1.000000" stroke="none"
	d="
M201.893173,44.028671
	C212.074539,73.037292 222.337921,101.615280 232.118408,130.357590
	C235.972031,141.682404 235.591187,153.481567 233.399857,165.991577
	C226.833557,158.914749 221.997940,151.292191 219.274796,142.835464
	C213.733093,125.625717 208.978256,108.158882 204.073105,90.748970
	C199.663910,75.099350 195.495499,59.381947 191.189575,43.703045
	C190.911194,42.689415 190.364166,41.749565 189.942093,40.775398
	C189.494003,40.857273 189.045914,40.939144 188.597824,41.021019
	C189.243530,54.902233 190.067017,68.778114 190.483780,82.666191
	C190.882507,95.954338 190.947937,109.255226 190.938507,122.550362
	C190.936783,124.966515 190.073059,127.453560 189.254547,129.783997
	C186.954117,136.333588 180.077179,138.954041 174.388397,134.988617
	C170.914902,132.567368 167.806732,129.321365 165.277802,125.896858
	C153.243164,109.600334 144.440918,91.538734 137.026016,72.760185
	C136.259171,70.818115 135.446259,68.894241 133.903076,67.086594
	C132.931946,76.609886 132.048233,86.143051 130.973358,95.654617
	C127.704315,124.582672 123.045380,153.262497 115.283997,181.368805
	C114.756676,183.278366 114.420647,185.667938 113.107445,186.833939
	C111.100845,188.615601 107.979492,190.912338 105.962074,190.417755
	C103.907661,189.914124 101.141685,186.218307 101.259460,184.060593
	C101.655457,176.805328 102.990944,169.573868 104.335686,162.402451
	C111.092888,126.366814 115.435799,90.059662 117.113838,53.427895
	C117.471397,45.622200 118.270821,37.835533 118.927139,30.045193
	C119.322716,25.349743 121.774590,22.077587 126.470207,21.356529
	C131.102814,20.645149 134.121780,23.628633 135.832367,27.438032
	C140.115952,36.977421 144.390167,46.545204 148.069321,56.326824
	C155.931671,77.230095 164.408585,97.783218 177.777451,115.919846
	C178.830673,117.348686 180.003586,118.689285 182.197510,121.402206
	C182.938080,114.928680 184.061707,109.918045 183.979340,104.927322
	C183.729187,89.771782 182.711456,74.626480 182.583694,59.472206
	C182.498322,49.345505 183.252869,39.197262 184.039474,29.090405
	C184.188873,27.170990 186.251389,23.896719 187.430710,23.896931
	C189.437759,23.897291 192.219955,25.528055 193.305099,27.309238
	C196.492188,32.540535 199.004990,38.182617 201.893173,44.028671
z"/>
<path fill="#FBFBFB" opacity="1.000000" stroke="none"
	d="
M421.007690,385.864563
	C422.347076,376.053802 423.658722,366.687592 425.057190,356.701477
	C418.858917,358.010498 413.023956,359.618561 407.080414,360.386993
	C401.673676,361.086060 396.137390,361.176392 390.679810,360.968323
	C386.087799,360.793213 382.475586,357.083466 382.188782,353.222626
	C381.931671,349.761444 385.207916,345.915771 389.522003,344.897827
	C410.036865,340.057159 430.493958,334.929230 451.128418,330.661835
	C457.832550,329.275330 465.017883,329.998535 471.970978,330.192383
	C473.617157,330.238281 475.214355,332.040619 476.834106,333.034973
	C475.862213,334.297485 475.053833,335.740387 473.892029,336.793365
	C466.134338,343.824554 456.345154,346.706604 446.712402,349.870331
	C442.624847,351.212830 438.493591,352.422302 435.519257,353.341064
	C436.335693,371.243408 438.021515,388.628571 437.667450,405.972046
	C437.315704,423.204041 434.912506,440.394104 433.396271,457.746674
	C442.517883,456.242249 450.658600,454.287933 458.892365,453.745331
	C464.905396,453.349060 471.088593,454.529785 477.104248,455.548767
	C480.829010,456.179657 481.048004,458.250854 478.310516,461.058411
	C472.251160,467.272797 464.331604,469.197601 456.366852,470.916382
	C438.018066,474.876038 419.643402,478.723480 401.233215,482.385010
	C397.048401,483.217285 392.611969,483.674042 388.418854,483.192657
	C386.376221,482.958221 383.446564,480.389343 383.081390,478.466431
	C382.724548,476.587524 384.605804,473.010376 386.400452,472.224609
	C392.897430,469.379974 399.756439,467.351746 406.509491,465.107666
	C409.303741,464.179108 412.175415,463.483582 413.793274,463.026428
	C416.236084,436.949585 418.608032,411.629333 421.007690,385.864563
z"/>
<path fill="#FBFBFB" opacity="1.000000" stroke="none"
	d="
M356.282959,424.687439
	C354.215881,420.402679 352.319733,416.450836 349.948547,411.508942
	C346.677094,422.467773 341.183716,430.708466 333.119537,437.270691
	C309.268799,456.679382 278.257172,449.351013 265.657745,421.271881
	C261.096527,411.106689 258.951843,400.328705 258.654388,389.327271
	C258.300049,376.220184 258.676147,363.087341 258.989197,349.971710
	C259.088470,345.813019 261.200470,342.066559 265.757324,342.200500
	C270.158142,342.329895 272.225616,345.941895 272.516418,350.172363
	C273.394714,362.950043 273.502136,375.822662 275.184387,388.489044
	C276.392609,397.586456 278.654572,406.830902 282.219421,415.259949
	C287.360931,427.417053 297.086151,432.242371 310.158539,430.117859
	C325.420837,427.637451 337.811249,420.541656 343.632538,405.268524
	C344.707092,402.449249 344.865265,398.660614 343.942566,395.805389
	C339.470764,381.967957 336.238678,367.925415 335.732666,353.374603
	C335.602814,349.641205 335.762634,345.478119 337.311584,342.240814
	C338.516357,339.722839 342.094147,336.853699 344.602509,336.867249
	C347.074219,336.880646 350.971741,339.892517 351.704071,342.346680
	C353.530579,348.467529 353.950409,355.013794 354.862946,361.399536
	C355.376740,364.994843 355.229431,368.768188 356.269867,372.190765
	C361.831970,390.487030 368.379944,408.408844 377.842773,425.128143
	C381.623962,431.808868 384.184509,438.626251 381.483795,446.502411
	C380.430359,449.574615 379.262024,450.493408 376.121124,449.049652
	C370.667938,446.543091 366.076538,443.215515 363.226440,437.795135
	C360.983429,433.529236 358.712463,429.278046 356.282959,424.687439
z"/>
<path fill="#FBFBFB" opacity="1.000000" stroke="none"
	d="
M376.292297,50.633419
	C377.834442,66.119164 379.850891,81.158684 380.538086,96.258705
	C381.258942,112.098152 385.495178,126.932892 390.116211,141.905777
	C393.861755,154.041809 396.050446,166.658340 398.929626,179.061737
	C398.297241,179.439957 397.664856,179.818176 397.032471,180.196381
	C392.187744,175.766998 387.343048,171.337616 382.355225,166.777420
	C381.643890,168.805038 380.953522,170.780762 380.257782,172.754608
	C375.784332,185.445801 364.370026,193.317230 352.563324,191.854492
	C340.406006,190.348297 331.859680,180.359848 331.256805,166.171249
	C330.853180,156.671844 333.182220,147.661560 338.516876,139.652191
	C345.954803,128.485016 355.658447,126.791496 367.182526,135.125366
	C366.943420,133.107498 366.876770,131.590714 366.572937,130.123032
	C361.561340,105.916237 356.098663,81.791321 351.728149,57.469952
	C350.319214,49.629444 351.530273,41.262096 351.994598,33.161655
	C352.281250,28.161251 356.083557,25.585823 360.503845,24.523914
	C364.981262,23.448267 368.160522,26.457371 369.600281,29.988562
	C372.269989,36.536335 374.038452,43.451580 376.292297,50.633419
M377.135834,158.592621
	C374.579803,152.332840 372.023773,146.073059 369.501953,139.897110
	C367.684570,140.480927 365.848297,141.523621 363.975250,141.594574
	C355.626709,141.910782 352.050049,147.386642 350.308899,154.379654
	C349.284790,158.492783 348.928955,162.885345 349.016846,167.136826
	C349.162659,174.191696 354.112335,177.720322 361.165283,176.524872
	C370.897308,174.875320 374.285278,167.422424 377.135834,158.592621
z"/>
<path fill="#FBFBFB" opacity="1.000000" stroke="none"
	d="
M586.002686,426.004333
	C567.165283,432.457092 548.005066,437.330536 527.885010,435.857788
	C513.411926,434.798431 500.255646,429.871185 489.529053,419.787872
	C474.061127,405.247437 470.861755,383.140350 481.757843,364.019897
	C494.131775,342.306122 512.982666,329.374023 537.664856,325.666443
	C542.808350,324.893829 548.526062,326.309204 553.653320,327.821075
	C555.883118,328.478546 557.289612,331.928406 559.070007,334.110046
	C556.802917,335.325653 554.623718,337.378479 552.255127,337.627014
	C529.195129,340.047180 512.205322,352.289978 499.711578,370.873962
	C489.034637,386.755310 494.062714,403.969818 511.436157,411.968292
	C526.953674,419.112305 543.664429,422.289032 560.626221,423.682526
	C568.732788,424.348572 576.914185,424.104675 585.498169,424.560394
	C585.957336,425.233368 585.980042,425.618835 586.002686,426.004333
z"/>
<path fill="#FBFBFB" opacity="1.000000" stroke="none"
	d="
M271.528625,120.458084
	C281.657135,114.881577 291.800018,112.137520 302.934662,115.970840
	C318.295227,121.259003 321.695068,135.628311 309.760071,146.490997
	C299.767548,155.585754 287.359070,160.680954 275.130707,165.955017
	C273.956390,166.461487 272.744904,166.881775 270.744446,167.652786
	C281.195740,181.593231 294.141388,189.404053 312.380676,189.453415
	C304.797424,194.592789 297.193420,197.402664 288.875397,197.876587
	C270.838287,198.904251 255.700745,186.350052 251.097198,166.863815
	C246.864227,148.946167 254.229813,132.037064 271.528625,120.458084
M272.539490,145.187866
	C271.620605,147.198196 270.701721,149.208542 269.211121,152.469727
	C281.810333,146.060623 293.762970,141.598358 303.511627,132.477722
	C302.001831,131.839661 301.262390,131.400055 300.464691,131.222702
	C299.499817,131.008209 298.487335,130.975479 297.492493,130.933289
	C286.531403,130.468277 278.982269,136.171265 272.539490,145.187866
z"/>
<path fill="#F9F9FA" opacity="1.000000" stroke="none"
	d="
M506.166229,134.065659
	C511.152100,129.036301 515.260010,128.606339 518.298462,134.279434
	C524.218567,145.332809 529.264099,156.874725 534.226135,168.406082
	C535.374817,171.075439 534.731079,174.516159 534.929810,177.903076
	C522.163147,177.306305 516.233582,169.265762 511.937592,160.183182
	C507.178345,163.378906 502.731293,167.168991 497.633209,169.585526
	C491.205017,172.632492 484.447632,172.024307 479.132843,166.805801
	C473.910858,161.678406 473.783356,155.195374 476.191498,148.709625
	C480.004700,138.439728 488.126740,133.544678 498.484863,132.024551
	C500.408325,131.742264 502.547974,132.932770 504.833130,134.078278
	C504.015167,135.906311 503.032501,137.185211 501.873413,138.276718
	C498.494080,141.458923 494.682220,144.263611 491.730988,147.794022
	C489.146057,150.886322 486.220917,154.825150 489.510223,158.991028
	C492.720642,163.056976 497.457642,162.628967 501.928589,161.324905
	C503.630035,160.828644 505.167450,159.678314 506.693420,158.692612
	C509.237885,157.048920 509.982880,155.047577 508.733978,151.947830
	C506.439606,146.252960 504.344543,140.405350 506.166229,134.065659
z"/>
<path fill="#FAFBFB" opacity="1.000000" stroke="none"
	d="
M427.622009,99.568588
	C421.000458,95.011177 418.717926,88.580742 418.376221,81.346359
	C418.036896,74.162575 419.861725,71.763596 427.563202,68.649254
	C426.116913,67.111977 424.812042,65.725037 423.366211,64.188286
	C426.928680,59.893238 431.823456,60.423054 436.430725,61.669762
	C448.573914,64.955681 455.984375,83.049850 449.903320,93.962349
	C445.598663,101.687134 436.758392,104.024750 427.622009,99.568588
z"/>
<path fill="#F9F9FA" opacity="1.000000" stroke="none"
	d="
M432.167542,179.675598
	C429.415558,164.289246 426.735229,149.277298 424.194977,134.241669
	C423.931091,132.679688 424.236694,130.892838 424.731354,129.356262
	C426.036346,125.302895 429.484558,124.372849 432.308105,127.596649
	C434.334412,129.910217 436.016296,132.789932 437.002258,135.704483
	C441.302124,148.415237 445.315704,161.223389 449.358368,174.019806
	C449.799133,175.415054 449.893341,176.960831 449.914093,178.440063
	C449.977783,182.972748 448.550720,186.736771 443.789978,188.149765
	C439.320343,189.476364 436.565216,186.811371 434.274170,183.492599
	C433.522003,182.403000 432.939423,181.196335 432.167542,179.675598
z"/>
<path fill="#A4A7AE" opacity="1.000000" stroke="none"
	d="
M586.387207,426.052948
	C585.980042,425.618835 585.957336,425.233368 585.903870,424.554077
	C587.417969,424.078583 588.962952,423.896912 590.507935,423.715240
	C590.609741,424.071899 590.711548,424.428528 590.813354,424.785187
	C589.466125,425.223969 588.118896,425.662781 586.387207,426.052948
z"/>
</svg>
