<svg version="1.1" id="Layer_1" xmlns="http://www.w3.org/2000/svg" xmlns:xlink="http://www.w3.org/1999/xlink" x="0px" y="0px"
	 width="100%" viewBox="0 0 500 150" enable-background="new 0 0 500 150" xml:space="preserve">
<path fill="#01BC2D" opacity="1.000000" stroke="none"
	d="
M82.866119,114.839363
	C83.351608,109.198975 82.327309,104.600609 78.621597,100.560867
	C75.882706,97.575111 76.815384,94.611389 80.372223,92.847687
	C83.190704,91.450104 86.110451,89.996391 89.151329,89.354607
	C99.966644,87.072052 109.646027,70.350182 104.333977,59.761082
	C102.857063,56.816998 101.508720,53.673588 100.886421,50.469173
	C100.078423,46.308491 100.055069,41.995434 99.614014,36.807545
	C95.877304,38.153629 91.361671,39.912476 86.751633,41.373425
	C85.002563,41.927719 83.038452,41.920017 81.168320,41.955456
	C73.346680,42.103668 65.521652,42.297581 57.702141,42.182838
	C55.635647,42.152512 53.381153,41.436428 51.570908,40.406273
	C48.350330,38.573540 45.402973,36.260700 42.341335,34.148674
	C41.733917,34.398796 41.126495,34.648918 40.519077,34.899044
	C40.332390,37.818043 40.309254,40.759773 39.907677,43.648903
	C39.581699,45.994118 39.392990,48.690037 38.117752,50.512905
	C33.219753,57.514286 32.126060,71.433601 40.548367,79.813179
	C45.860477,85.098335 51.528561,89.219452 58.984982,90.823738
	C64.179916,91.941452 64.409767,93.832870 62.382629,98.618767
	C60.830563,102.283051 60.553055,106.528740 59.988792,110.555092
	C59.621319,113.177208 60.288570,116.044807 59.490105,118.472870
	C58.897900,120.273712 56.694118,121.544609 55.208221,123.051575
	C53.775902,121.504280 52.109409,120.104744 51.003159,118.351692
	C50.385395,117.372726 50.698204,115.806534 50.546402,113.951759
	C42.243080,114.723320 34.946587,112.612007 29.212339,106.502975
	C27.163677,104.320427 25.141218,102.069855 23.456055,99.610970
	C22.784985,98.631790 23.059526,97.004539 22.903585,95.672318
	C24.290554,95.649429 25.993359,95.095901 27.007454,95.699493
	C30.575670,97.823273 33.869122,100.402199 37.338715,102.699875
	C41.403618,105.391792 45.737144,106.638161 50.779411,104.604065
	C51.013542,102.577316 51.254211,100.493973 51.491310,98.441559
	C32.029919,93.159149 20.057278,67.474464 30.693949,48.711327
	C31.653214,47.019180 31.544834,44.661640 31.699944,42.595669
	C31.797617,41.294693 31.259136,39.946545 31.353109,38.644611
	C32.172550,27.291985 36.423378,23.663591 46.657860,28.251350
	C54.527096,31.778854 61.775826,32.123226 69.889175,31.228401
	C74.535606,30.715944 79.381767,32.144890 84.151726,32.529682
	C85.336876,32.625290 86.633125,32.211182 87.778038,31.770727
	C90.874413,30.579538 93.840485,29.003508 96.995163,28.018772
	C106.047348,25.193129 110.421265,28.967169 108.367012,38.255852
	C107.534088,42.022087 108.582603,44.556019 109.925819,47.913025
	C112.328690,53.918343 114.320885,60.530357 114.431374,66.924240
	C114.716957,83.450493 105.241493,93.403374 91.397430,98.327446
	C91.672081,104.487572 92.090355,110.161812 92.113274,115.837631
	C92.126060,119.007751 91.010536,122.205605 87.119865,121.993538
	C83.169823,121.778236 82.863762,118.443222 82.866119,114.839363
z"/>
<path fill="#F4F4F5" opacity="1.000000" stroke="none"
	d="
M201.449799,100.854126
	C209.560669,95.878685 214.779846,89.024338 218.465851,80.384132
	C215.148132,79.782822 212.152451,79.602051 209.460571,78.602859
	C208.064255,78.084557 206.303894,76.074669 206.364456,74.818466
	C206.421814,73.628510 208.569855,71.667183 209.924973,71.553505
	C218.709305,70.816574 227.526871,70.275383 236.337021,70.219315
	C238.050842,70.208405 239.780014,72.611427 241.502106,73.900986
	C240.014236,75.285858 238.733002,77.432793 236.997253,77.903435
	C232.863541,79.024254 228.515030,79.352890 223.816254,80.068054
	C222.982147,89.383018 218.495255,96.936920 211.572739,103.137810
	C198.433716,114.907120 186.229904,111.530647 181.001144,94.693016
	C175.535675,77.093086 185.387543,48.337593 200.498444,37.695454
	C205.349640,34.278896 210.654266,32.387901 216.487503,34.062477
	C219.296021,34.868736 221.769241,36.842934 224.394302,38.288254
	C224.219330,38.746078 224.044357,39.203907 223.869400,39.661732
	C223.004715,39.735710 222.098999,40.015205 221.281693,39.851955
	C212.850418,38.167881 206.034622,41.165016 200.935776,47.622448
	C191.107941,60.068909 185.486908,73.987953 187.990250,90.216606
	C188.361313,92.622108 189.415024,95.014000 190.573212,97.188286
	C193.428452,102.548515 195.227585,103.106941 201.449799,100.854126
z"/>
<path fill="#F5F6F6" opacity="1.000000" stroke="none"
	d="
M360.848938,78.253265
	C360.128357,77.104630 359.602692,76.277252 358.810974,75.031128
	C353.663055,83.918823 351.162903,92.374359 352.118103,101.665283
	C352.440247,104.798302 352.712830,108.149406 348.755463,108.837051
	C344.458374,109.583717 343.985077,106.016342 342.979431,102.890572
	C336.896027,83.981918 336.258057,64.275612 334.356903,44.764019
	C334.081635,41.938656 332.640137,37.844734 337.003204,36.967236
	C337.786133,36.809780 340.238922,41.316277 340.712738,43.891624
	C342.759003,55.013626 344.345978,66.219879 346.132416,77.390297
	C346.312439,78.515999 346.710571,79.606819 347.100861,81.062065
	C349.058258,77.597183 350.573639,74.297348 352.641693,71.390755
	C356.235779,66.339348 360.619263,66.003212 364.673645,70.708496
	C372.667816,79.986099 376.132050,91.258934 377.500183,103.160408
	C377.753723,105.366058 375.893188,107.814728 374.859955,110.543167
	C369.438690,107.747780 369.245453,103.260597 368.001434,99.229271
	C365.859985,92.289505 363.381134,85.453857 360.848938,78.253265
z"/>
<path fill="#F4F4F5" opacity="1.000000" stroke="none"
	d="
M482.008362,92.907211
	C478.418823,96.800125 475.237488,100.659035 471.467407,103.814507
	C468.377625,106.400574 464.454712,106.670891 460.617767,104.906113
	C459.865753,104.560219 458.935150,103.799614 458.356476,104.001793
	C451.194183,106.504036 450.771423,101.043365 449.681702,96.636055
	C445.413818,79.375114 441.221130,62.095356 437.086639,44.801994
	C436.596832,42.753174 436.637604,40.577496 437.279053,38.283134
	C445.290222,47.729729 447.065765,59.468655 450.352264,70.690254
	C451.010742,69.885475 451.888000,69.158340 452.326019,68.225044
	C457.198883,57.842529 467.183380,58.815636 474.872589,64.964714
	C483.787109,72.093666 486.507111,82.440384 482.008362,92.907211
M476.209564,79.393158
	C473.815094,75.931534 472.020050,71.745453 468.898438,69.162605
	C462.828339,64.140068 457.890533,65.963982 457.281799,73.759888
	C456.609161,82.374413 457.608490,91.119484 457.924103,101.234367
	C462.396820,98.792297 465.600433,97.476212 468.297791,95.477081
	C473.356018,91.728142 477.617706,87.320473 476.209564,79.393158
z"/>
<path fill="#F6F6F7" opacity="1.000000" stroke="none"
	d="
M301.014282,40.169083
	C305.721130,39.496677 306.971863,40.878624 306.711365,46.140995
	C306.358582,53.266624 305.925659,60.388290 305.529968,67.461212
	C310.938904,68.245613 315.921906,68.968239 321.440125,69.768478
	C317.900177,76.703865 312.168854,77.345917 306.136719,77.475410
	C306.136719,83.844688 306.129730,89.937569 306.141266,96.030411
	C306.144409,97.694206 306.712952,99.578857 306.111237,100.967514
	C305.300995,102.837334 303.608429,104.324844 302.294586,105.976440
	C300.761963,104.525482 298.079712,103.209206 297.891235,101.600761
	C296.964325,93.689156 296.699371,85.699997 296.171021,77.264046
	C293.277985,76.401947 289.940399,75.525734 286.688416,74.401794
	C283.964111,73.460243 281.439362,71.497223 283.034088,68.578781
	C283.846405,67.092239 287.060822,66.421822 289.236938,66.310448
	C291.625305,66.188217 294.068298,67.134048 296.709381,67.658546
	C297.190948,61.428272 297.426361,55.611469 298.169189,49.860203
	C298.583771,46.650150 299.841492,43.548992 301.014282,40.169083
z"/>
<path fill="#F4F5F5" opacity="1.000000" stroke="none"
	d="
M426.240784,100.545258
	C420.391083,103.198280 419.056335,98.133331 416.351685,94.978882
	C411.578888,100.259727 406.258362,104.578041 398.546173,101.596680
	C392.205017,99.145317 389.669769,93.732208 389.183167,87.408928
	C388.834351,82.876572 388.807495,78.142838 394.144318,74.622078
	C394.705505,76.967537 395.201202,78.636536 395.490204,80.340591
	C395.934570,82.960548 395.990570,85.668091 396.649933,88.225395
	C398.102386,93.858398 401.491455,96.180969 405.869751,94.889732
	C410.646393,93.481003 413.819427,87.809090 412.413971,83.087860
	C411.702728,80.698669 410.387421,78.370811 410.262543,75.967552
	C410.180176,74.382942 411.393768,71.806175 412.647369,71.339386
	C413.878998,70.880791 416.964539,72.134979 417.394897,73.311287
	C420.631378,82.158165 423.412689,91.171570 426.240784,100.545258
z"/>
<path fill="#F3F4F5" opacity="1.000000" stroke="none"
	d="
M256.569397,64.274513
	C254.584686,58.291920 255.869980,54.200951 260.127380,51.961918
	C263.315002,50.285503 271.119812,51.938385 273.457642,54.908958
	C275.896210,58.007534 275.282684,61.167408 273.148926,64.112305
	C269.188934,69.577667 262.033447,69.747322 256.569397,64.274513
z"/>
<path fill="#F0F0F1" opacity="1.000000" stroke="none"
	d="
M264.517822,109.126282
	C261.257812,111.091492 258.838867,109.824921 258.815582,106.871445
	C258.745148,97.931152 259.219330,88.980003 259.773438,80.051208
	C259.830597,79.130302 261.867340,77.639931 262.949860,77.670654
	C264.021698,77.701065 265.972565,79.343254 265.952698,80.243454
	C265.741608,89.793556 265.214050,99.336662 264.517822,109.126282
z"/>
</svg>
