<svg version="1.1" id="Layer_1" xmlns="http://www.w3.org/2000/svg" xmlns:xlink="http://www.w3.org/1999/xlink" x="0px" y="0px"
	 width="100%" viewBox="-25 0 525 150" enable-background="new -20 0 500 150" xml:space="preserve">
<path fill="#F8F9F9" opacity="1.000000" stroke="none"
	d="
M149.112473,77.634827
	C149.045944,84.208000 149.118927,90.363869 149.307327,96.516212
	C149.351776,97.967499 149.784912,99.406876 150.060150,100.970581
	C161.102722,99.619225 171.840775,98.305130 183.797760,96.841873
	C181.700302,103.185471 178.363785,106.676437 174.175812,107.645256
	C165.183197,109.725571 155.954147,110.901016 146.766830,111.976845
	C141.576492,112.584625 139.734787,108.348495 139.246613,104.326973
	C136.991287,85.747475 136.898209,67.193665 141.176544,48.815456
	C141.508530,47.389359 142.074722,45.853992 141.839722,44.488575
	C140.914993,39.115955 141.941528,37.566505 147.557129,37.092377
	C159.984375,36.043140 172.420944,35.104713 184.849426,34.069656
	C189.486420,33.683483 194.113831,32.813190 198.740845,32.845600
	C200.796982,32.860001 202.841263,34.563976 204.890930,35.501045
	C203.542953,37.702003 202.597122,41.325863 200.772827,41.841438
	C194.921326,43.495163 188.775009,44.375702 182.687103,44.862450
	C172.435654,45.682083 162.141708,45.970150 151.209122,46.514496
	C150.356155,53.814362 149.498978,61.150410 148.638504,68.514572
	C160.292557,68.286552 171.494629,66.342522 182.063217,71.921738
	C171.688736,77.302979 160.765976,78.914024 149.112473,77.634827
z"/>
<path fill="#00BE2D" opacity="1.000000" stroke="none"
	d="
M42.291134,55.820789
	C47.084923,55.659779 51.514484,55.642506 55.859646,55.028206
	C59.027885,54.580299 59.541420,52.186283 58.648560,49.324711
	C54.581314,36.289463 37.891560,29.813869 26.345894,36.569912
	C22.684320,38.712521 18.499952,39.961704 14.450619,41.663532
	C12.757595,28.631042 23.185879,18.469688 37.033428,19.145123
	C51.360661,19.843956 66.646477,31.765766 70.920372,45.574436
	C73.743202,54.694832 70.147354,62.764275 61.094357,66.135178
	C56.205757,67.955452 50.910400,68.683334 45.796017,69.904655
	C45.627617,73.206154 45.842525,76.899437 45.088219,80.382851
	C44.721413,82.076767 42.649120,84.415611 41.154491,84.569061
	C39.625240,84.726059 36.781029,82.857002 36.381168,81.371727
	C34.620815,74.832870 33.058983,68.161530 32.363979,61.441113
	C31.852026,56.490677 35.903328,54.403107 42.291134,55.820789
z"/>
<path fill="#F7F8F8" opacity="1.000000" stroke="none"
	d="
M273.775269,70.665146
	C276.778168,65.880219 279.119965,60.960190 282.653473,57.143387
	C287.512482,51.894760 293.958405,51.765709 298.823212,55.714657
	C303.671265,59.650017 305.172974,66.727036 301.886139,72.375099
	C297.895386,79.232758 292.061829,83.559341 283.790924,83.832512
	C282.487579,83.875565 281.181549,83.838554 278.403351,83.838554
	C279.433899,93.056534 280.214386,101.880356 281.495483,110.630890
	C282.042389,114.366432 282.001648,117.641182 277.995697,118.716164
	C273.658051,119.880150 271.854431,116.648140 271.539673,113.053528
	C270.541931,101.659645 269.534424,90.247093 269.260712,78.824272
	C269.199310,76.259979 272.105469,73.624588 273.775269,70.665146
M294.105804,63.261120
	C292.828552,59.855469 290.576172,60.264175 288.923798,62.520729
	C285.782990,66.809998 283.095306,71.431053 280.219452,75.914314
	C280.655701,76.255280 281.091949,76.596237 281.528198,76.937195
	C283.948700,75.665169 286.536957,74.630074 288.749115,73.063774
	C291.819061,70.890083 295.208099,68.680542 294.105804,63.261120
z"/>
<path fill="#F7F7F8" opacity="1.000000" stroke="none"
	d="
M243.532593,104.297455
	C244.446594,107.166458 243.359360,108.575172 241.034119,107.694969
	C237.880005,106.501007 234.586609,105.054039 232.105881,102.863083
	C229.161011,100.262207 227.015854,96.755859 224.325516,93.393677
	C220.366531,95.943771 216.529984,98.526917 212.571838,100.907944
	C211.048141,101.824524 209.195007,102.911148 207.587891,102.776390
	C205.862854,102.631737 203.641785,101.507378 202.804230,100.110687
	C202.250549,99.187401 203.288757,96.468719 204.422485,95.530075
	C207.994125,92.573006 211.952576,90.084206 215.748444,87.395988
	C216.552414,86.826614 217.301804,86.180176 218.142929,85.516716
	C215.604721,81.491402 212.811691,77.725525 210.821671,73.574654
	C210.041550,71.947464 211.061066,69.457489 211.260971,67.360451
	C213.346741,67.653099 216.050812,67.224380 217.397797,68.378944
	C220.891525,71.373634 223.788025,75.065079 227.284622,78.872246
	C232.724564,74.574547 238.139084,70.296951 243.557419,66.016335
	C249.266785,71.079460 247.570816,74.669823 234.139954,86.221672
	C237.265472,92.163994 240.352341,98.032837 243.532593,104.297455
z"/>
<path fill="#F2F2F3" opacity="1.000000" stroke="none"
	d="
M465.208679,65.453163
	C459.719757,68.565407 458.588135,73.753487 458.150299,78.856087
	C457.641296,84.787521 458.051910,90.796585 458.033020,96.771866
	C458.023102,99.916138 456.403015,102.401871 453.333252,101.718910
	C451.603912,101.334152 449.104889,98.373985 449.220276,96.733559
	C449.860565,87.634178 451.152771,78.577934 452.347931,69.523582
	C452.506836,68.319962 453.383667,67.211105 454.227875,65.423477
	C455.207916,67.241379 455.846344,68.425629 456.487396,69.607407
	C465.707245,58.054340 473.041626,57.929802 481.765656,70.034454
	C485.478729,75.186371 488.077850,81.285606 490.381989,87.263176
	C492.256226,92.125397 490.825409,97.046005 487.311432,102.471352
	C485.327271,97.534378 483.330200,93.454826 482.039520,89.162857
	C479.590210,81.018097 475.478973,73.927956 469.599030,67.861679
	C468.519806,66.748260 466.931915,66.127907 465.208679,65.453163
z"/>
<path fill="#F5F6F6" opacity="1.000000" stroke="none"
	d="
M360.597900,95.448723
	C355.404999,89.418877 354.645416,84.128143 357.979309,78.858803
	C361.061523,73.987152 370.146667,71.214912 376.445648,73.098145
	C378.569946,73.733276 380.885010,73.785675 382.949371,74.547478
	C384.404480,75.084450 386.087372,76.087242 386.803070,77.366318
	C390.949860,84.777237 395.134735,92.246933 393.559387,102.552307
	C389.938782,99.473152 386.800537,96.804237 383.352997,93.872261
	C376.667358,98.546883 369.205139,102.223320 360.597900,95.448723
M370.078918,90.079453
	C373.980347,89.746620 377.881775,89.413788 382.242798,89.041748
	C380.637848,84.397713 379.540466,81.222321 378.285278,77.590271
	C375.058716,78.803001 372.022522,79.654175 369.257080,81.044098
	C363.536285,83.919365 363.597473,86.408798 370.078918,90.079453
z"/>
<path fill="#F8F8F8" opacity="1.000000" stroke="none"
	d="
M321.348907,61.260960
	C322.230774,53.864594 323.047638,46.937054 323.944855,40.019936
	C324.092529,38.881538 324.307770,37.552937 324.992004,36.726349
	C326.248199,35.208836 327.876831,33.999607 329.350189,32.661873
	C330.047272,34.381756 331.290192,36.080868 331.356598,37.824753
	C331.989197,54.449379 332.306335,71.086304 332.982452,87.708786
	C333.190674,92.827423 331.878540,97.129631 328.557861,101.140572
	C323.531006,98.087334 322.544434,93.073082 322.200439,88.174217
	C321.583130,79.383087 321.574005,70.549255 321.348907,61.260960
z"/>
<path fill="#00BD2D" opacity="1.000000" stroke="none"
	d="
M37.249256,125.038788
	C31.898968,123.896042 26.840860,122.858528 25.947830,116.635025
	C25.223343,111.586090 27.468348,107.721779 31.895418,105.829163
	C36.654449,103.794624 43.896549,105.745049 47.120270,110.139290
	C49.106285,112.846390 50.603764,115.655563 48.709606,119.284126
	C46.300976,123.898232 42.572018,125.481323 37.249256,125.038788
z"/>
<path fill="#F7F7F8" opacity="1.000000" stroke="none"
	d="
M426.936340,81.020279
	C426.596130,86.098671 426.114838,90.725899 426.031189,95.360291
	C425.947144,100.020874 424.285126,103.364304 419.541565,104.895187
	C415.489044,101.290222 415.294403,96.395729 415.557373,91.626648
	C415.792969,87.354507 416.598663,83.071777 417.589172,78.897224
	C418.319489,75.819122 419.704987,72.269707 423.751373,73.200089
	C427.343842,74.026108 427.419739,77.426781 426.936340,81.020279
z"/>
<path fill="#F5F5F6" opacity="1.000000" stroke="none"
	d="
M425.816040,58.939934
	C423.053558,59.412094 420.238251,60.657341 418.319244,59.828171
	C416.240753,58.930115 413.258026,54.930206 413.679169,54.302624
	C416.037354,50.788483 418.811127,46.944523 422.409973,45.053085
	C425.623718,43.364029 429.827484,45.089458 431.237823,49.230335
	C432.835663,53.921593 429.778076,56.622849 425.816040,58.939934
z"/>
</svg>
