<svg version="1.1" id="Layer_1" xmlns="http://www.w3.org/2000/svg" xmlns:xlink="http://www.w3.org/1999/xlink" x="0px" y="0px"
	 width="100%" viewBox="0 0 500 150" enable-background="new 0 0 500 150" xml:space="preserve">
<path fill="#00C02D" opacity="1.000000" stroke="none"
	d="
M33.313438,105.892593
	C22.184649,101.023392 16.887333,93.292885 19.240686,83.728127
	C22.196417,71.715118 29.601072,62.427917 42.102436,61.075737
	C51.073933,60.105354 59.381893,62.119667 66.394417,67.949715
	C79.353012,78.723198 77.785088,95.188217 63.061390,103.351997
	C53.710148,108.536934 43.871395,109.455269 33.313438,105.892593
z"/>
<path fill="#F6F6F7" opacity="1.000000" stroke="none"
	d="
M200.220764,46.445152
	C196.915787,63.155636 187.198090,69.352570 167.606613,66.837395
	C169.205582,75.724617 170.608978,84.349503 172.345291,92.906845
	C173.663284,99.402435 175.270187,105.848770 177.012939,112.244987
	C177.936554,115.634804 177.633636,118.776657 174.026230,119.287239
	C172.292007,119.532707 169.047104,117.206467 168.333923,115.339165
	C158.875824,90.574707 156.849503,65.219719 164.258621,39.608227
	C166.009888,33.554512 169.333893,27.676250 173.080353,22.555731
	C177.040604,17.143044 182.723724,16.916721 188.007736,21.147287
	C195.899170,27.465425 200.868393,35.435253 200.220764,46.445152
M189.669830,50.918217
	C193.475708,42.009853 191.491013,33.257084 184.557297,27.565948
	C182.149124,25.589346 180.156647,25.418867 178.283707,28.058289
	C170.355835,39.230537 169.018768,52.048378 168.343079,65.971664
	C177.970276,63.887527 184.235550,58.638210 189.669830,50.918217
z"/>
<path fill="#F6F7F7" opacity="1.000000" stroke="none"
	d="
M469.920105,98.225586
	C466.863892,92.678009 464.038116,87.430321 460.954254,82.338951
	C458.970703,79.064117 456.229706,79.099884 454.304413,82.223854
	C452.718506,84.797104 451.372589,87.806877 450.978790,90.764130
	C450.235535,96.346001 450.632904,102.091080 449.729645,107.633621
	C449.450562,109.346039 446.491455,110.621719 444.759430,112.097397
	C443.430298,110.318314 441.038818,108.598022 440.936554,106.751022
	C439.926941,88.510246 439.292603,70.248642 438.562134,51.992531
	C438.336060,46.342731 437.785004,40.670776 438.115021,35.051971
	C438.239136,32.938904 440.439941,30.947805 441.694000,28.901106
	C443.191223,30.757233 445.790588,32.492325 446.009857,34.488789
	C447.640045,49.334358 448.798035,64.231796 450.166901,79.827484
	C451.348053,78.733543 452.110779,77.988632 452.913727,77.289940
	C457.392883,73.392242 461.428223,72.875854 465.943817,76.613983
	C475.716431,84.703979 480.381073,95.897591 483.213470,107.834023
	C483.816956,110.377190 482.134430,113.462807 481.420563,116.679329
	C473.254974,112.673210 473.054565,104.773422 469.920105,98.225586
z"/>
<path fill="#F5F5F6" opacity="1.000000" stroke="none"
	d="
M306.086182,89.128967
	C310.025787,97.000771 307.394318,103.595200 302.515472,109.223984
	C298.384888,113.989510 292.705658,115.794685 286.241577,114.282990
	C284.491730,113.873764 282.378265,114.494797 280.858521,113.760086
	C278.996582,112.859947 276.511383,111.264267 276.143951,109.568779
	C272.951172,94.834808 270.084351,80.027565 267.311859,65.206329
	C266.059967,58.513924 264.980774,51.763187 264.389954,44.989487
	C264.219604,43.036896 266.021118,40.912312 266.918579,38.866585
	C268.380005,40.532169 270.694244,41.988056 271.163757,43.897549
	C274.088196,55.790489 276.599609,67.784996 279.117004,79.154335
	C282.928406,77.985268 286.698944,75.445091 289.329254,76.322639
	C294.150330,77.931107 298.394135,81.419952 302.673004,84.418266
	C304.084106,85.407066 304.860901,87.301079 306.086182,89.128967
M298.002014,86.766479
	C296.991760,85.464195 296.245514,83.625214 294.916290,82.971298
	C292.144928,81.607933 288.144196,79.253700 286.342072,80.280052
	C284.009979,81.608238 282.008484,85.929642 282.204712,88.802475
	C282.671051,95.629051 284.514862,102.361526 285.810913,109.178505
	C298.345093,104.680176 303.082031,94.710617 298.002014,86.766479
z"/>
<path fill="#F5F6F7" opacity="1.000000" stroke="none"
	d="
M414.828949,117.791061
	C408.649506,124.401558 402.836670,131.124557 393.067596,130.805145
	C390.112061,130.708511 387.190399,129.577316 383.081940,128.657867
	C393.110077,123.058807 401.555634,117.990189 407.748657,110.182915
	C413.020416,103.536949 412.011475,99.954056 404.565216,96.037163
	C401.033234,94.179253 397.362000,92.545967 393.988220,90.436203
	C388.106476,86.758110 387.536896,82.225105 392.429108,77.296715
	C398.414917,71.266594 405.685364,67.831741 414.337433,68.108269
	C416.292297,68.170753 418.219788,69.089058 420.159851,69.613411
	C420.170624,70.030769 420.181366,70.448128 420.192108,70.865479
	C413.135101,74.599251 406.078094,78.333015 397.715393,82.757591
	C402.039764,84.981598 404.868805,86.468109 407.725159,87.900238
	C421.512451,94.812958 424.008087,104.879532 414.828949,117.791061
z"/>
<path fill="#F6F6F7" opacity="1.000000" stroke="none"
	d="
M211.057526,88.963005
	C215.950546,87.442963 217.412033,88.471802 218.020660,92.892822
	C218.537842,96.649597 218.978409,100.504601 220.210785,104.052917
	C221.732468,108.434296 225.416016,109.332550 229.476532,106.978783
	C234.131271,104.280579 235.683929,99.967094 236.244125,94.897598
	C236.641479,91.301819 235.470428,86.405060 240.439575,85.228676
	C245.767761,83.967300 246.641510,89.242058 248.684021,92.367119
	C253.145493,99.193207 255.976898,106.475975 253.406158,116.020866
	C249.790924,111.447105 246.674530,107.504486 243.369202,103.322800
	C240.636871,109.784027 236.078598,114.684654 229.160934,117.028099
	C224.666382,118.550682 220.588608,117.420403 216.952576,114.686668
	C210.442276,109.791893 207.384201,96.945786 211.057526,88.963005
z"/>
<path fill="#F7F7F8" opacity="1.000000" stroke="none"
	d="
M324.288147,60.838493
	C324.229126,55.539066 323.951080,50.705807 324.263153,45.910957
	C324.370850,44.256332 325.947754,42.697338 326.853516,41.094658
	C327.986237,42.502594 329.869415,43.783367 330.132904,45.338581
	C332.238586,57.766010 334.293488,70.213577 335.848389,82.719078
	C337.055756,92.429329 337.772736,102.221573 338.169006,111.999199
	C338.292114,115.037781 337.349976,118.630394 335.640015,121.100098
	C333.608063,124.034828 330.429230,123.529510 329.431732,119.765404
	C328.293274,115.469376 327.566772,111.001129 327.238190,106.564995
	C326.121826,91.493408 325.259827,76.402969 324.288147,60.838493
z"/>
<path fill="#F7F7F8" opacity="1.000000" stroke="none"
	d="
M362.168457,115.572784
	C359.423798,101.427277 357.941315,87.690918 362.199371,74.128960
	C362.786224,74.037453 363.373108,73.945946 363.959961,73.854439
	C364.702332,75.537827 365.824158,77.156364 366.124756,78.915253
	C367.909088,89.356430 369.520203,99.827499 371.136749,110.296677
	C371.311066,111.425766 371.524689,112.799179 371.056763,113.723419
	C370.162445,115.489983 369.038757,117.979691 367.545532,118.364136
	C366.097046,118.737068 364.065369,116.844749 362.168457,115.572784
z"/>
<path fill="#EBEBED" opacity="1.000000" stroke="none"
	d="
M353.865723,54.637028
	C356.717438,48.616508 364.243042,45.647739 368.832581,48.680561
	C372.102570,50.841412 373.913513,53.956276 372.458344,58.102192
	C370.980682,62.312233 366.115326,65.264610 361.789612,64.626999
	C356.679230,63.873722 354.053558,60.705662 353.865723,54.637028
M359.346344,52.905762
	C357.208862,55.281822 358.001007,57.709930 360.507965,58.355957
	C362.684143,58.916744 366.374268,58.602997 367.505707,57.176769
	C369.862274,54.206169 367.961639,51.169456 365.261353,48.678711
	C363.328583,50.006519 361.600006,51.194042 359.346344,52.905762
z"/>
</svg>
