<svg version="1.1" id="Layer_1" xmlns="http://www.w3.org/2000/svg" xmlns:xlink="http://www.w3.org/1999/xlink" x="0px" y="0px"
	 width="100%" viewBox="0 0 750 255" enable-background="new 0 0 750 255" xml:space="preserve">
<path fill="#01C12E" opacity="1.000000" stroke="none"
	d="
M196.217377,167.213120
	C202.706039,166.977478 207.925003,169.455063 213.052887,173.494644
	C217.636169,177.105194 223.385666,179.209015 228.494781,182.193069
	C230.209351,183.194489 232.315765,184.641632 232.776352,186.293900
	C233.101425,187.460068 231.304260,189.879333 229.857559,190.777191
	C212.402893,201.609695 194.835556,212.260635 177.300690,222.963974
	C171.354721,226.593414 164.831528,229.727524 157.988327,228.247589
	C149.888580,226.495880 141.890610,223.614624 134.343796,220.145508
	C126.385521,216.487244 118.899590,211.739716 111.416199,207.129013
	C105.053841,203.209000 99.089325,198.647293 92.768394,194.655121
	C83.201759,188.613037 73.328537,183.047485 63.872360,176.842422
	C57.097275,172.396652 50.138439,167.876328 44.523193,162.151749
	C41.199493,158.763321 38.913971,153.054260 38.621857,148.239441
	C37.757271,133.988831 37.440578,119.621147 38.345276,105.390533
	C38.681343,100.104263 42.159775,94.380562 45.694477,90.080566
	C51.339363,83.213524 60.151955,83.676422 67.126282,89.226685
	C71.488968,92.698578 76.562836,95.296455 81.399933,98.146774
	C85.731049,100.698952 87.347954,96.091591 91.339851,94.932060
	C85.407166,91.922897 80.514572,89.514847 75.697876,86.963501
	C73.648895,85.878197 71.327080,84.844482 69.933220,83.132690
	C68.820076,81.765625 68.031281,78.915939 68.739914,77.626152
	C69.450783,76.332291 72.630966,75.106735 73.972565,75.665916
	C80.551506,78.408051 87.158066,81.299156 93.216042,85.015862
	C99.370209,88.791580 99.396095,89.194496 105.583412,82.161003
	C98.272888,77.805878 91.150299,73.562721 83.474846,68.990189
	C91.142845,62.498940 98.203247,56.955639 107.191429,53.594017
	C115.063316,50.649895 122.169037,45.662415 129.625610,41.600323
	C133.135010,39.688519 136.863190,38.112263 140.162857,35.894039
	C149.618423,29.537489 159.889526,29.322611 170.326904,31.968102
	C174.879547,33.122032 179.217087,35.451256 183.379242,37.742702
	C189.629364,41.183651 195.460480,45.406208 201.787720,48.682304
	C215.832108,55.954136 230.350586,62.350216 244.137543,70.065193
	C253.233368,75.155098 261.632629,81.609055 269.901886,88.022072
	C277.629272,94.014862 281.188202,101.772179 279.378357,112.152763
	C277.019348,125.683189 275.990326,139.440781 273.965942,153.037659
	C273.476166,156.327484 271.899017,159.821930 269.831085,162.439499
	C264.286835,169.457260 251.180573,169.464340 242.824860,163.175735
	C237.124084,158.885300 231.136597,154.975861 225.496796,150.575043
	C228.478912,149.144577 232.048660,148.757614 233.828979,146.768829
	C237.103058,143.111359 240.505875,138.831314 241.749115,134.240479
	C244.747604,123.168076 244.818039,114.100777 232.599167,108.619530
	C229.424561,107.195450 226.196945,105.810242 223.230515,104.015686
	C212.428177,97.480812 201.712112,90.802711 190.990814,84.134720
	C182.595108,78.913101 174.233307,73.636780 165.869217,68.364494
	C161.810150,65.805878 157.564316,65.152489 152.998032,66.840614
	C139.013397,72.010635 126.186089,78.909798 114.761917,88.815514
	C105.574669,96.781624 95.994408,104.556755 83.385117,107.389793
	C80.337257,108.074577 77.816658,112.152641 75.596260,115.081680
	C74.261818,116.842003 73.930954,119.383263 73.227592,121.598495
	C69.362206,133.772568 74.144737,143.300995 86.049393,147.948959
	C90.178345,149.561050 94.098259,151.807709 97.914795,154.096176
	C102.894707,157.082214 107.746811,160.296585 112.529617,163.593033
	C122.495125,170.461517 132.357971,177.478790 142.301682,184.379150
	C155.033981,193.214676 160.833847,194.331161 171.620422,185.135986
	C179.318268,178.573837 187.983704,173.146713 196.217377,167.213120
z"/>
<path fill="#FCFEFD" opacity="1.000000" stroke="none"
	d="
M196.441742,166.821014
	C187.983704,173.146713 179.318268,178.573837 171.620422,185.135986
	C160.833847,194.331161 155.033981,193.214676 142.301682,184.379150
	C132.357971,177.478790 122.495125,170.461517 112.529617,163.593033
	C107.746811,160.296585 102.894707,157.082214 97.914795,154.096176
	C94.098259,151.807709 90.178345,149.561050 86.049393,147.948959
	C74.144737,143.300995 69.362206,133.772568 73.227592,121.598495
	C73.930954,119.383263 74.261818,116.842003 75.596260,115.081680
	C77.816658,112.152641 80.337257,108.074577 83.385117,107.389793
	C95.994408,104.556755 105.574669,96.781624 114.761917,88.815514
	C126.186089,78.909798 139.013397,72.010635 152.998032,66.840614
	C157.564316,65.152489 161.810150,65.805878 165.869217,68.364494
	C174.233307,73.636780 182.595108,78.913101 190.990814,84.134720
	C201.712112,90.802711 212.428177,97.480812 223.230515,104.015686
	C226.196945,105.810242 229.424561,107.195450 232.599167,108.619530
	C244.818039,114.100777 244.747604,123.168076 241.749115,134.240479
	C240.505875,138.831314 237.103058,143.111359 233.828979,146.768829
	C232.048660,148.757614 228.478912,149.144577 225.211472,150.247574
	C218.132965,147.055405 211.559250,143.869705 204.759674,139.981171
	C205.919083,135.919159 207.304367,132.559982 208.702713,129.169174
	C205.828262,127.192245 203.571701,125.483856 201.169205,124.013962
	C188.135437,116.039604 174.747757,108.587280 162.169556,99.953438
	C157.348175,96.643982 153.791489,96.713974 149.775925,99.537201
	C136.756424,108.690811 123.892532,118.065712 110.430603,127.742180
	C126.266594,138.121841 141.865189,148.345886 157.334396,158.485138
	C161.130966,156.282074 165.517181,153.736847 169.903397,151.191620
	C175.568176,153.259506 181.267471,155.239120 186.882858,157.433380
	C189.594284,158.492905 192.417938,159.611633 194.665771,161.373413
	C195.897003,162.338394 196.035095,164.698120 196.441742,166.821014
z"/>
<path fill="#00C02D" opacity="1.000000" stroke="none"
	d="
M317.152649,102.759537
	C317.648346,96.315483 320.930786,91.989502 325.236847,87.962646
	C336.770508,77.176834 350.834290,75.373947 365.348907,77.502831
	C376.272339,79.104988 387.040863,82.302788 397.605194,85.651993
	C406.906860,88.600914 409.733154,96.900230 409.742676,105.547295
	C409.754547,116.316399 409.451416,127.271729 407.446503,137.796555
	C405.926697,145.774826 409.089508,150.013535 414.615723,154.011215
	C416.096832,155.082672 417.748199,155.930618 419.170288,157.069794
	C425.238251,161.930542 426.619751,169.427200 422.706543,175.811203
	C418.726410,182.304459 410.773193,184.997421 404.084869,181.116058
	C398.686035,177.983032 393.827698,173.804718 389.113159,169.654358
	C386.743042,167.567886 384.648376,166.947281 381.553192,167.204361
	C376.970917,167.584961 372.283173,167.480698 367.706604,166.978760
	C358.802765,166.002243 349.780731,165.298904 341.101746,163.241745
	C322.240479,158.771118 314.585999,149.338364 313.199738,130.090652
	C312.793915,124.455841 312.497437,118.723305 313.102661,113.138710
	C313.475189,109.701172 315.650085,106.458961 317.152649,102.759537
M372.032166,138.451874
	C374.548553,138.567245 377.064941,138.682602 378.876709,138.765671
	C379.302551,130.107147 379.480042,122.320625 380.158051,114.577927
	C380.469574,111.020340 379.293396,108.925568 375.966278,108.629082
	C365.752686,107.718918 355.520386,106.951019 345.278870,106.506248
	C343.972473,106.449501 341.420074,108.617882 341.401398,109.786682
	C341.300812,116.083473 341.855804,122.388611 342.108246,128.693939
	C342.262329,132.541931 343.901794,134.794312 347.964081,135.259506
	C355.713287,136.146866 363.438629,137.243195 372.032166,138.451874
z"/>
<path fill="#00C02D" opacity="1.000000" stroke="none"
	d="
M537.733398,130.551132
	C536.134216,139.769623 533.447266,148.108109 528.120300,155.400513
	C523.926697,161.141296 518.330078,164.601746 511.393860,166.356232
	C499.165924,169.449203 486.977509,171.273483 474.469360,168.050491
	C459.919403,164.301407 451.840149,154.808624 448.925659,140.028259
	C446.019684,125.290962 447.000580,110.537918 447.231964,95.782959
	C447.294281,91.809448 448.797211,87.540413 450.703003,83.976021
	C455.624451,74.771568 468.044800,74.788399 472.857727,84.044815
	C474.700623,87.589203 475.613708,91.912361 475.843262,95.943695
	C476.475647,107.048027 475.986176,118.232590 476.953552,129.296860
	C477.901855,140.142975 480.319427,141.729370 491.309906,140.843643
	C495.254456,140.525742 499.492706,140.016632 502.904602,138.254425
	C505.232819,137.051941 507.448853,133.681686 507.832703,131.010193
	C509.319092,120.665451 510.129608,110.218971 511.015961,99.795425
	C511.282654,96.659172 510.867096,93.471161 510.958282,90.312469
	C511.170349,82.966225 516.758484,76.932259 523.937744,76.148048
	C530.573425,75.423218 537.953003,80.308678 538.884644,87.394958
	C539.895569,95.084572 539.788391,102.969193 539.593689,110.754402
	C539.432007,117.219963 538.436157,123.664665 537.733398,130.551132
z"/>
<path fill="#00C02D" opacity="1.000000" stroke="none"
	d="
M712.060059,153.388519
	C712.127136,163.863449 706.410522,169.737686 696.567688,169.962433
	C683.552490,170.259628 670.653625,169.884155 657.968628,166.295135
	C647.293701,163.274796 640.287781,156.964401 637.119507,146.206757
	C633.222961,132.976196 631.569214,119.439278 631.947205,105.755333
	C632.496948,85.851349 649.649475,70.260849 669.478638,71.385025
	C679.434998,71.949486 689.375916,73.022659 699.276733,74.246933
	C706.293762,75.114616 711.349976,78.836739 713.141418,86.071022
	C714.419556,91.232445 712.349121,97.762123 707.317261,100.336853
	C703.716003,102.179573 699.130188,102.912743 695.025085,102.787148
	C686.402893,102.523338 677.812012,101.318642 669.200134,100.598167
	C664.351624,100.192543 660.735718,102.860474 661.060730,107.503197
	C661.709534,116.767876 662.886597,126.010582 664.305603,135.191254
	C664.536987,136.688675 667.023804,138.795731 668.639465,138.962662
	C677.874817,139.916870 687.155029,140.515594 696.433411,140.949463
	C704.929138,141.346756 709.539551,144.729019 712.060059,153.388519
z"/>
<path fill="#03BF2F" opacity="1.000000" stroke="none"
	d="
M169.638474,150.988770
	C165.517181,153.736847 161.130966,156.282074 157.334396,158.485138
	C141.865189,148.345886 126.266594,138.121841 110.430603,127.742180
	C123.892532,118.065712 136.756424,108.690811 149.775925,99.537201
	C153.791489,96.713974 157.348175,96.643982 162.169556,99.953438
	C174.747757,108.587280 188.135437,116.039604 201.169205,124.013962
	C203.571701,125.483856 205.828262,127.192245 208.702713,129.169174
	C207.304367,132.559982 205.919083,135.919159 204.534058,139.691772
	C200.586182,137.697815 196.658401,135.256226 192.685486,132.890427
	C185.434692,128.572708 178.129059,124.346535 170.900665,119.991936
	C166.068710,117.081009 160.804306,114.589836 156.708221,110.844681
	C153.076126,107.523766 150.459290,107.221504 146.985062,110.258408
	C145.888947,111.216537 144.660721,112.023514 143.547623,112.858658
	C143.803955,113.421646 143.857101,113.852463 144.062546,113.944962
	C163.496063,122.693947 181.049561,134.784622 199.562149,145.168365
	C213.200775,152.818283 226.763016,160.604477 240.350800,168.344849
	C241.941177,169.250809 244.008728,169.909088 244.902878,171.296036
	C245.988556,172.980133 246.063263,175.315994 246.575378,177.369858
	C244.537827,177.861099 242.477875,178.797424 240.470093,178.696426
	C238.984375,178.621689 237.562546,177.203812 236.119095,176.372421
	C209.443298,161.007858 182.810074,145.568649 156.063995,130.327438
	C149.475372,126.572914 142.714767,122.919052 135.619095,120.373131
	C133.374847,119.567902 129.784531,122.514259 126.810242,123.743721
	C126.820488,124.340790 126.830734,124.937866 126.840988,125.534935
	C141.018509,133.951935 155.196030,142.368927 169.638474,150.988770
z"/>
<path fill="#00C02D" opacity="1.000000" stroke="none"
	d="
M601.722046,105.347679
	C602.489624,117.086792 603.552246,128.356720 603.867615,139.647537
	C604.090088,147.612320 603.411255,155.612305 602.927185,163.583954
	C602.460938,171.262085 595.844482,177.499786 588.489807,177.489090
	C580.935059,177.478104 574.175598,170.956329 574.109619,163.054840
	C574.055603,156.574860 575.073792,150.072815 574.829346,143.610321
	C574.339417,130.658188 573.296021,117.727356 572.510864,104.785927
	C572.065002,97.437012 571.838501,90.141624 575.710876,83.394852
	C578.539917,78.465889 582.553040,75.619690 588.304749,76.075935
	C594.033813,76.530403 598.370789,79.814407 599.574341,85.224480
	C600.997070,91.619736 601.050598,98.319611 601.722046,105.347679
z"/>
</svg>
