<svg version="1.1" id="Layer_1" xmlns="http://www.w3.org/2000/svg" xmlns:xlink="http://www.w3.org/1999/xlink" x="0px" y="0px"
	 width="100%" viewBox="0 0 2122 1125" enable-background="new 0 0 2122 1125" xml:space="preserve">
<path fill="#FDFEFE" opacity="1.000000" stroke="none"
	d="
M663.929688,305.566772
	C668.005432,300.496704 672.081177,295.426636 676.580261,289.891907
	C678.323730,287.937256 679.636719,286.440887 680.965149,284.958282
	C690.176086,274.678528 697.917053,273.362396 710.003357,280.015930
	C715.390747,285.519287 718.375000,291.808929 716.781006,299.755676
	C716.602478,300.645752 717.493408,301.750336 718.398438,303.268738
	C721.987366,307.054779 725.124329,310.274963 728.135559,313.608704
	C747.762634,335.338409 767.160583,357.279449 787.033081,378.781952
	C803.958557,397.095795 821.508240,414.831177 838.607483,432.986633
	C847.227722,442.139404 855.461182,451.656372 864.413696,461.613983
	C870.690674,453.459839 877.463928,445.842224 882.909363,437.371094
	C901.006226,409.218719 924.169861,385.851135 948.963623,363.636780
	C971.241821,343.676300 992.195435,322.237366 1013.733398,301.450623
	C1017.533936,297.423004 1021.334473,293.395386 1025.593506,288.937012
	C1037.347900,276.309143 1048.401123,263.875519 1059.997437,251.970840
	C1076.931396,234.586609 1093.729126,217.012115 1111.551514,200.566223
	C1131.963501,181.730881 1152.146606,162.716141 1171.135498,142.446533
	C1178.519775,135.799667 1186.059326,129.315460 1193.240601,122.456116
	C1199.333496,116.636421 1205.984253,113.297287 1214.351318,116.456161
	C1222.415161,119.500557 1226.259033,125.602280 1227.424316,134.221390
	C1227.838745,137.286636 1231.372803,139.930161 1233.900635,143.215668
	C1255.615723,168.763092 1283.241699,186.682617 1308.260864,207.416595
	C1331.552856,226.719101 1351.721069,248.478760 1371.008545,271.392731
	C1373.281738,274.093384 1375.300049,277.008636 1377.199097,279.511414
	C1383.081543,273.279785 1388.602051,267.301727 1394.265869,261.462463
	C1402.372681,253.104416 1410.498901,244.761841 1418.768188,236.565292
	C1437.670898,217.828888 1455.951416,198.295837 1478.024536,183.196777
	C1491.961792,173.663010 1503.333862,161.750153 1514.309692,149.239578
	C1518.418701,144.890259 1522.579224,140.588333 1526.626221,136.182190
	C1536.786011,125.120972 1549.143311,125.426430 1558.623535,136.950790
	C1559.758301,138.330276 1561.202026,139.543488 1562.707520,140.516449
	C1574.875122,148.379990 1584.390869,158.859024 1593.871948,169.736954
	C1610.902588,189.276917 1627.893188,209.154251 1647.189819,226.316772
	C1661.489746,239.035400 1675.182007,251.725754 1686.021240,267.480194
	C1691.199951,275.007324 1696.774658,282.262177 1702.181641,289.631683
	C1702.569458,290.160187 1702.959595,290.850525 1703.508057,291.073273
	C1712.676147,294.797028 1721.824463,298.578400 1731.085327,302.059357
	C1733.837769,303.093933 1736.922119,303.245636 1740.723633,303.856201
	C1754.884399,303.240845 1768.193481,302.811554 1781.462891,301.842072
	C1798.874390,300.569946 1816.353394,299.585754 1833.625366,297.192627
	C1860.720703,293.438477 1887.894165,290.945343 1915.197632,291.491302
	C1936.008911,291.907440 1956.774536,292.871460 1977.569336,291.142059
	C1980.452515,290.902252 1981.266235,289.925110 1982.234741,287.375153
	C1984.991333,280.117310 1988.312988,273.074127 1991.412354,265.946472
	C1998.375610,259.899689 2006.682251,258.268799 2015.582275,258.604797
	C2026.553711,259.019043 2037.524536,259.448761 2048.496094,259.862610
	C2071.229980,260.720123 2079.832275,268.303528 2081.584961,291.026093
	C2083.124512,310.980988 2081.430908,330.914581 2077.969238,350.636627
	C2077.375732,354.019135 2076.046875,357.374329 2074.509521,360.469879
	C2070.350830,368.843719 2062.340820,372.827942 2051.257568,370.726196
	C2034.090210,367.470673 2016.812622,368.216156 1999.553223,368.068939
	C1992.061890,368.005035 1985.507690,365.975677 1979.253784,360.903564
	C1969.681274,351.038055 1974.667969,340.623199 1977.397217,329.870422
	C1974.564209,330.108826 1972.455322,330.350891 1970.339966,330.452972
	C1961.527710,330.878265 1952.713257,331.595245 1943.899902,331.591766
	C1924.592651,331.584167 1905.273926,330.708374 1885.982056,331.151489
	C1873.380981,331.440918 1860.814941,333.385712 1848.239990,334.655579
	C1830.540161,336.442932 1812.857300,338.404541 1795.146606,340.074707
	C1783.404663,341.181946 1771.627075,341.909668 1759.865356,342.807312
	C1745.772827,343.222107 1731.702637,343.404175 1718.049683,338.987793
	C1716.477783,338.479279 1714.821289,338.194275 1713.302124,337.567841
	C1709.147339,335.854401 1705.368530,335.096710 1700.644043,336.870026
	C1693.846436,339.421509 1687.561279,336.693726 1682.603760,331.622162
	C1680.435425,329.403900 1678.895264,326.571442 1676.739014,323.461853
	C1668.084351,310.504730 1659.931152,297.984467 1651.383789,285.739532
	C1644.314453,275.612091 1636.395508,266.243011 1625.791748,259.423065
	C1621.619751,256.739899 1617.537964,253.620819 1614.205933,249.977020
	C1596.247192,230.337082 1578.569946,210.440018 1560.720093,190.699966
	C1555.619263,185.058990 1550.266602,179.645905 1544.391235,173.456116
	C1543.086304,175.215973 1542.359375,176.340714 1541.492188,177.344147
	C1527.931885,193.035904 1512.988281,207.164047 1495.425903,218.381851
	C1492.496338,220.253052 1489.718262,222.474869 1487.228149,224.901901
	C1468.283813,243.366074 1449.332764,261.825531 1430.589844,280.493347
	C1422.483032,288.567505 1414.863037,297.130188 1407.021851,305.470947
	C1402.459106,310.419830 1397.787354,315.005341 1397.082153,322.547455
	C1396.492432,328.854279 1391.895508,333.116455 1385.620483,336.253540
	C1377.674927,339.266846 1371.309570,337.088501 1365.334351,332.831421
	C1360.816895,325.929443 1356.299561,319.027466 1351.430664,311.593079
	C1348.350952,306.885162 1345.748657,302.620941 1342.874878,298.548279
	C1319.422607,265.311218 1287.708984,240.446259 1256.698853,215.106705
	C1239.014282,200.656036 1220.099731,187.838852 1207.147583,168.470535
	C1204.980957,165.230743 1202.588501,164.753448 1199.561401,167.834946
	C1193.056885,174.456131 1186.322998,180.851517 1179.697388,187.353867
	C1155.697510,210.907211 1131.703369,234.466629 1107.425537,258.118652
	C1106.365601,259.132935 1105.587402,260.052307 1104.901611,260.948486
	C1104.994141,260.925354 1104.940186,260.742554 1104.632324,260.816833
	C1104.172363,261.250092 1104.020386,261.609039 1103.920654,261.931915
	C1103.972778,261.895844 1103.894287,261.796173 1103.555176,261.854553
	C1098.789917,266.933746 1094.363892,271.954559 1089.967163,276.985535
	C1089.996338,276.995697 1089.973755,276.938141 1089.678711,277.011658
	C1088.931152,277.746399 1088.478638,278.407593 1088.037598,279.057281
	C1088.049194,279.045776 1088.066895,279.018280 1087.792969,279.167053
	C1087.266602,279.869629 1087.014038,280.423401 1086.868896,280.965088
	C1086.976074,280.953003 1086.943237,280.739716 1086.639282,280.817291
	C1086.162476,281.262207 1085.989624,281.629547 1085.901733,282.000061
	C1085.986572,282.003296 1085.991821,281.833557 1085.729248,281.921997
	C1085.306030,282.327118 1085.145508,282.643799 1084.696533,283.131165
	C1074.883423,293.473389 1065.358765,303.644897 1055.833984,313.816406
	C1049.183105,320.785004 1042.532349,327.753571 1035.436401,335.159729
	C1013.315735,356.001892 991.763306,376.539520 969.926025,396.769531
	C952.121948,413.263123 934.711853,430.062531 921.148560,450.383698
	C911.535339,464.786499 901.975403,479.224915 888.162415,490.139282
	C882.494812,494.287842 876.659241,498.228180 871.198303,502.632965
	C862.649475,509.528351 850.808228,508.580383 843.740417,499.962921
	C841.230591,496.902802 839.057678,493.566345 836.357361,489.855835
	C823.297791,474.576508 810.777222,459.650940 797.866821,445.070557
	C789.481018,435.600037 780.975830,426.151337 771.737366,417.536530
	C750.137207,397.394409 729.694458,376.224426 711.074097,353.286987
	C705.226562,346.083679 698.996277,339.191132 692.373718,331.497192
	C680.099854,347.145996 668.257812,362.379456 656.269958,377.497345
	C637.562683,401.089020 621.519653,426.865265 599.446594,447.698151
	C582.747620,463.458923 566.285767,479.620239 544.702393,488.954407
	C543.731628,489.374237 542.915466,490.329102 542.227905,491.194183
	C539.970764,494.034271 537.806152,496.947968 535.605896,499.833374
	C522.983643,505.838257 515.109314,503.944672 506.689880,492.608704
	C495.005005,476.876068 483.448883,461.047852 471.806091,445.283905
	C470.265930,443.198547 468.540039,441.250397 466.535614,438.739197
	C463.366058,434.783813 460.963806,430.875305 457.682129,427.955109
	C446.889587,418.351227 435.845337,409.025421 424.763794,399.752930
	C418.296844,394.341736 411.574402,389.235901 404.966888,383.992706
	C404.966888,383.992706 404.977753,384.027069 404.913452,383.712463
	C404.274750,383.181396 403.700409,382.964935 403.126038,382.748444
	C403.126038,382.748444 403.114990,382.856476 403.156982,382.516174
	C402.474884,381.756226 401.750793,381.336578 401.026672,380.916962
	C401.026672,380.916962 401.013336,380.985352 401.002136,380.689301
	C400.648956,380.254181 400.307037,380.115143 399.965088,379.976074
	C399.965088,379.976074 399.977051,380.033508 399.916748,379.774536
	C399.537903,379.377380 399.219330,379.239227 398.900757,379.101074
	C398.900757,379.101044 398.957031,379.072327 398.829773,378.863190
	C398.250031,378.413635 397.797607,378.173248 397.345154,377.932831
	C386.777344,369.345184 376.277039,360.672668 365.620880,352.196075
	C356.671478,345.077148 349.177216,336.738831 342.869019,326.528992
	C341.935181,326.423523 341.446869,326.716400 340.958557,327.009277
	C340.958557,327.009277 341.008881,327.025909 340.611938,326.920746
	C339.554413,326.901581 338.862183,326.888397 338.237762,327.087708
	C303.057098,338.316406 266.661072,337.449554 230.411911,337.783722
	C216.932144,337.908051 203.446793,337.255096 189.962387,337.085968
	C165.150253,336.774719 140.337128,336.533905 115.523949,336.317078
	C106.243134,336.235962 96.961014,336.303955 87.205574,336.303955
	C87.121796,345.970062 85.859825,355.653625 76.196671,361.570435
	C61.942921,368.688690 47.027569,366.365906 32.142483,364.710876
	C28.354280,364.289673 24.531202,363.923492 20.727539,363.954071
	C12.861077,364.017212 6.395288,361.400970 1.348187,354.961121
	C1.000000,330.645782 1.000000,306.291534 1.000000,281.468658
	C10.198542,274.209137 21.123171,273.569000 31.881733,272.307343
	C41.242954,271.209503 50.588837,269.974182 59.959740,268.969879
	C62.566906,268.690430 65.238914,269.015991 68.597168,269.219635
	C83.487167,272.694855 87.217072,283.225311 86.984100,296.116272
	C90.830681,296.444092 93.977356,296.888855 97.131737,296.952698
	C119.286118,297.401062 141.441223,297.831757 163.597778,298.149536
	C188.243668,298.503021 212.891357,298.935059 237.538254,298.934418
	C251.687378,298.934021 265.834198,297.908386 279.986206,297.770203
	C295.794403,297.615845 310.933685,293.979401 326.028687,289.884369
	C333.023804,288.549530 339.969849,286.781372 347.025635,285.982330
	C357.366974,284.811188 365.319305,290.865906 368.399323,300.817322
	C369.211121,303.440155 371.508545,305.603149 373.599701,308.397278
	C401.228912,330.854980 428.170013,353.161102 455.601044,374.847504
	C478.527954,392.973022 499.057373,413.079773 514.388245,438.222382
	C518.685120,445.269287 524.177185,451.587433 528.811279,457.823151
	C537.813232,450.249298 546.496094,443.003235 555.093567,435.657135
	C556.685547,434.296844 557.932922,432.533234 559.631348,430.992126
	C560.311096,430.693207 560.698914,430.357880 561.052856,430.043365
	C561.018921,430.064178 561.065308,430.128845 561.397644,430.054199
	C580.439575,414.183960 595.057434,394.863251 609.040955,375.017395
	C609.007996,375.010254 609.016663,375.077148 609.319824,374.962463
	C609.710327,374.436951 609.797729,374.026154 610.125732,373.399353
	C611.084045,372.504517 611.901489,371.903961 612.504944,371.135437
	C629.659790,349.289551 646.792969,327.426788 663.929688,305.566772
z"/>
<path fill="#00C22D" opacity="1.000000" stroke="none"
	d="
M710.244385,279.790161
	C697.917053,273.362396 690.176086,274.678528 680.965149,284.958282
	C679.636719,286.440887 678.323730,287.937256 676.766235,289.572235
	C655.592285,269.553192 637.236206,246.871796 614.648621,228.259216
	C591.443176,209.137436 570.501099,187.762848 555.639587,161.063202
	C551.384644,153.418976 550.651001,146.889572 556.348206,139.991913
	C568.435608,125.357521 580.640015,110.814423 592.467712,95.971939
	C619.103882,62.546459 651.072571,34.620255 683.575928,7.251576
	C686.650391,4.662786 690.819885,3.374547 694.740479,1.241256
	C696.388916,1.000000 697.777771,1.000000 699.583374,1.000000
	C708.626587,3.731445 715.111084,8.537635 716.907959,18.084887
	C717.090454,19.054867 718.026184,20.165472 718.918396,20.677423
	C733.969299,29.313438 744.289124,42.752090 754.078186,56.401199
	C769.553162,77.978195 787.553223,96.950607 808.581970,113.094910
	C812.892883,116.404488 817.015991,119.688850 822.768616,120.860306
	C830.176086,122.368744 835.047302,127.551079 836.743408,134.996994
	C838.643250,143.337524 835.374390,149.942169 828.957825,155.279892
	C818.716492,163.799133 808.466248,172.310593 798.359619,180.988205
	C769.535461,205.736786 743.584534,233.089661 722.362061,264.764221
	C718.854126,269.999756 714.466492,274.645874 710.244385,279.790161
z"/>
<path fill="#00C12D" opacity="1.000000" stroke="none"
	d="
M1869.467529,1126.000000
	C1860.994995,1123.029053 1853.426758,1119.469116 1847.719360,1112.702271
	C1839.031860,1102.402222 1837.566895,1090.471802 1838.248047,1077.532715
	C1839.499268,1053.767212 1840.585815,1029.967041 1840.689331,1006.176880
	C1840.751343,991.912781 1839.147217,977.606812 1837.698730,963.380066
	C1836.104980,947.728760 1838.791138,932.530151 1841.380615,917.276306
	C1842.604614,910.066345 1843.933228,902.874023 1845.239136,895.678223
	C1845.446899,894.533203 1845.597534,893.321594 1846.092407,892.293762
	C1850.404541,883.338013 1854.188599,874.052795 1859.323975,865.590332
	C1864.294434,857.399597 1872.748047,853.650635 1882.219727,853.273804
	C1920.466431,851.752136 1958.718506,850.328979 1996.977905,849.188599
	C2003.740112,848.987000 2010.626221,849.857483 2017.317993,851.021240
	C2031.281006,853.449402 2041.349487,866.227661 2040.987915,880.328491
	C2040.634644,894.106262 2030.064697,906.698669 2016.049683,907.912537
	C2004.015503,908.954712 1991.811523,907.870850 1979.689819,908.101257
	C1961.073120,908.455139 1942.462524,909.129883 1922.770996,909.699585
	C1920.504639,924.893311 1918.310425,939.442261 1916.178833,954.000427
	C1915.621216,957.808411 1917.127808,959.433899 1921.219604,959.074463
	C1931.329956,958.186279 1941.473511,956.954834 1951.591553,957.058044
	C1964.338257,957.187988 1977.075806,958.462341 1989.810425,959.342590
	C1993.613892,959.605469 1997.500732,959.785095 2001.166260,960.720154
	C2015.050293,964.262146 2025.231445,978.212097 2023.659546,991.112976
	C2021.714111,1007.080383 2009.562256,1018.788818 1993.920166,1018.677368
	C1985.835938,1018.619751 1977.770264,1016.204956 1969.683716,1016.124878
	C1956.905029,1015.998169 1944.114258,1016.904724 1931.331909,1017.451172
	C1927.714966,1017.605713 1924.109619,1018.028564 1920.337036,1018.341736
	C1919.951416,1026.235718 1919.583862,1033.843018 1919.207275,1041.449829
	C1918.482666,1056.080200 1917.658203,1070.706421 1917.047852,1085.341553
	C1916.183228,1106.071045 1906.077759,1119.463867 1886.257568,1125.750977
	C1880.645020,1126.000000 1875.290161,1126.000000 1869.467529,1126.000000
z"/>
<path fill="#00C12D" opacity="1.000000" stroke="none"
	d="
M85.468628,1126.000000
	C80.145607,1122.855469 74.710701,1120.328491 70.563751,1116.431152
	C63.093075,1109.410278 59.673050,1100.330322 59.815895,1089.907959
	C60.023655,1074.748901 60.499813,1059.566406 59.912964,1044.430664
	C59.178471,1025.486694 57.083195,1006.596375 56.308979,987.652832
	C55.452324,966.692322 55.482189,945.696655 55.007969,924.718933
	C54.820126,916.409302 54.104298,908.109741 53.994598,899.800720
	C53.704788,877.849060 70.943764,859.657898 92.341843,859.107422
	C113.923462,858.552124 132.357681,876.207764 132.922699,898.225159
	C133.434875,918.183899 133.284714,938.167236 134.167419,958.106934
	C135.241592,982.371582 137.318085,1006.590576 138.539993,1030.850464
	C139.713501,1054.149414 140.529480,1077.407837 132.016174,1099.929321
	C127.503532,1111.867310 120.358978,1120.702637 108.209503,1125.721680
	C100.645744,1126.000000 93.291496,1126.000000 85.468628,1126.000000
z"/>
<path fill="#00C22D" opacity="1.000000" stroke="none"
	d="
M1365.018066,333.000061
	C1371.309570,337.088501 1377.674927,339.266846 1385.382812,336.472778
	C1387.482422,338.658478 1390.041138,340.670532 1390.655273,343.161896
	C1391.776978,347.713531 1394.657227,349.928070 1398.307495,352.201172
	C1403.089478,355.178955 1408.102051,358.238953 1411.865601,362.323090
	C1430.436401,382.476471 1451.178833,400.204193 1472.112061,417.771210
	C1488.957397,431.907745 1502.888550,448.579010 1514.484009,467.298859
	C1522.989502,481.030334 1520.227661,491.898407 1505.756470,499.222931
	C1504.739136,499.737823 1503.798584,500.483429 1502.966797,501.273743
	C1492.345337,511.365723 1481.561768,521.297058 1471.203491,531.653320
	C1461.670776,541.184448 1452.277100,550.895447 1443.399414,561.032654
	C1426.750122,580.044250 1408.319458,597.020203 1388.096802,612.151184
	C1385.276978,614.261047 1382.850586,617.634705 1381.573364,620.938049
	C1376.561035,633.900696 1360.910156,638.553772 1350.944702,629.188904
	C1336.187744,615.321289 1321.468506,601.362183 1307.572266,586.649536
	C1299.619751,578.229858 1293.030762,568.449524 1286.355347,558.912659
	C1275.071533,542.791809 1260.102783,530.172241 1246.745361,516.017822
	C1242.122070,511.118744 1238.342041,505.427124 1234.120239,500.142700
	C1233.429321,499.277802 1232.519165,498.532379 1231.583496,497.927948
	C1226.035034,494.343628 1224.085205,489.536285 1227.684937,483.917084
	C1231.941528,477.272705 1236.769775,470.643646 1242.626831,465.446716
	C1255.804932,453.753967 1267.750244,441.256775 1276.807739,426.005585
	C1290.406006,403.108521 1309.165527,384.676941 1328.746582,366.963837
	C1337.867676,358.712677 1346.484375,349.905548 1355.394409,341.418335
	C1358.394287,338.560791 1361.593628,335.912628 1365.018066,333.000061
z"/>
<path fill="#00C22D" opacity="1.000000" stroke="none"
	d="
M535.817627,500.132935
	C537.806152,496.947968 539.970764,494.034271 542.227905,491.194183
	C542.915466,490.329102 543.731628,489.374237 544.702393,488.954407
	C566.285767,479.620239 582.747620,463.458923 599.446594,447.698151
	C621.519653,426.865265 637.562683,401.089020 656.269958,377.497345
	C668.257812,362.379456 680.099854,347.145996 692.373718,331.497192
	C698.996277,339.191132 705.226562,346.083679 711.074097,353.286987
	C729.694458,376.224426 750.137207,397.394409 771.737366,417.536530
	C780.975830,426.151337 789.481018,435.600037 797.866821,445.070557
	C810.777222,459.650940 823.297791,474.576508 836.069336,489.696198
	C834.824524,495.492310 831.856445,499.711945 826.854431,502.414459
	C826.276978,502.726440 825.464722,503.044250 825.267456,503.554840
	C820.652344,515.505371 809.442200,521.307556 800.717896,529.220032
	C782.405396,545.828308 766.255432,564.344116 749.943481,582.810303
	C735.099487,599.614746 721.279358,617.493713 703.258362,631.248535
	C699.965454,633.761841 696.511963,636.278809 692.746460,637.893555
	C689.516052,639.278809 685.553040,640.410217 682.231262,639.831909
	C674.844788,638.545776 666.645752,637.677002 660.634583,633.776672
	C652.431519,628.453979 645.406677,620.946106 638.909607,613.476685
	C633.386902,607.127441 628.901245,599.748535 624.708557,592.396484
	C615.919556,576.984314 602.440430,566.077515 589.632690,554.462036
	C579.034729,544.850647 568.212646,535.446045 558.181152,525.268433
	C553.627563,520.648560 550.804382,514.340515 547.065796,508.887695
	C546.119629,507.507599 544.792725,506.307587 543.431213,505.311127
	C541.049500,503.568024 538.505432,502.046722 535.817627,500.132935
z"/>
<path fill="#00C22D" opacity="1.000000" stroke="none"
	d="
M888.119385,490.625244
	C901.975403,479.224915 911.535339,464.786499 921.148560,450.383698
	C934.711853,430.062531 952.121948,413.263123 969.926025,396.769531
	C991.763306,376.539520 1013.315735,356.001892 1035.221924,335.463013
	C1044.324341,337.356842 1050.142944,344.131714 1055.635986,350.222534
	C1077.563354,374.535950 1104.487183,392.986450 1129.102173,414.117828
	C1140.551880,423.947052 1149.082397,435.933411 1157.835815,447.875153
	C1161.577148,452.979218 1165.215576,458.169342 1168.673096,463.468903
	C1179.504150,480.069794 1179.193726,490.111053 1161.906128,503.446136
	C1147.483887,514.571045 1133.723999,526.315369 1120.502808,538.675415
	C1111.299194,547.279663 1103.854248,557.733948 1095.007812,566.758057
	C1076.820190,585.311279 1058.389038,603.636353 1039.638062,621.617310
	C1036.118896,624.992004 1030.849976,627.389587 1026.017212,628.329651
	C1020.147522,629.471436 1015.561584,625.862427 1012.816162,620.052917
	C1001.216309,623.431335 993.725037,617.127686 987.092163,609.031921
	C976.119080,595.638672 964.971191,582.379028 954.331116,568.724792
	C938.427673,548.316162 921.661011,528.740234 902.286621,511.510437
	C898.704529,508.324982 895.243652,504.993713 891.541199,501.956024
	C887.956543,499.014984 887.561035,495.257355 888.119385,490.625244
z"/>
<path fill="#00C22D" opacity="1.000000" stroke="none"
	d="
M1107.707153,258.023743
	C1131.703369,234.466629 1155.697510,210.907211 1179.697388,187.353867
	C1186.322998,180.851517 1193.056885,174.456131 1199.561401,167.834946
	C1202.588501,164.753448 1204.980957,165.230743 1207.147583,168.470535
	C1220.099731,187.838852 1239.014282,200.656036 1256.698853,215.106705
	C1287.708984,240.446259 1319.422607,265.311218 1342.874878,298.548279
	C1345.748657,302.620941 1348.350952,306.885162 1351.142090,311.400635
	C1348.912476,317.416962 1345.086304,321.545929 1339.357056,323.946320
	C1338.102417,324.472015 1337.059814,325.691467 1336.130615,326.772797
	C1332.710449,330.752960 1329.713623,335.159180 1325.944458,338.764252
	C1318.123657,346.244629 1309.507935,352.919159 1301.933105,360.626740
	C1277.532104,385.455048 1253.682617,410.828827 1229.097534,435.470428
	C1222.760986,441.821594 1214.692749,446.549988 1207.058228,451.461456
	C1202.554199,454.359009 1197.294556,453.794891 1192.779297,450.940063
	C1187.874512,447.838837 1182.698364,444.825836 1178.650146,440.767334
	C1156.776978,418.838226 1135.278320,396.536041 1113.511841,374.499512
	C1106.846802,367.751770 1099.763306,361.415894 1092.836060,354.929199
	C1082.500977,345.251434 1071.911865,335.829071 1061.922119,325.808350
	C1059.062256,322.939575 1057.898315,318.380127 1055.895386,314.206177
	C1065.358765,303.644897 1074.883423,293.473389 1084.909668,282.988892
	C1085.604858,282.395172 1085.798340,282.114380 1085.991821,281.833557
	C1085.991821,281.833557 1085.986572,282.003296 1086.160400,281.861145
	C1086.537354,281.392578 1086.740234,281.066162 1086.943237,280.739716
	C1086.943237,280.739716 1086.976074,280.953003 1087.139648,280.805908
	C1087.557739,280.111969 1087.812378,279.565125 1088.066895,279.018280
	C1088.066895,279.018280 1088.049194,279.045776 1088.370850,279.024231
	C1089.119629,278.314514 1089.546753,277.626312 1089.973755,276.938141
	C1089.973755,276.938141 1089.996338,276.995697 1090.315918,277.003601
	C1095.055176,271.939697 1099.474731,266.867950 1103.894287,261.796173
	C1103.894287,261.796173 1103.972778,261.895844 1104.180664,261.813171
	C1104.572510,261.401184 1104.756348,261.071869 1104.940186,260.742554
	C1104.940186,260.742554 1104.994141,260.925354 1105.176636,260.811615
	C1106.141846,259.806488 1106.924438,258.915100 1107.707153,258.023743
z"/>
<path fill="#00C22D" opacity="1.000000" stroke="none"
	d="
M1013.515503,301.180969
	C992.195435,322.237366 971.241821,343.676300 948.963623,363.636780
	C924.169861,385.851135 901.006226,409.218719 882.909363,437.371094
	C877.463928,445.842224 870.690674,453.459839 864.413696,461.613983
	C855.461182,451.656372 847.227722,442.139404 838.607483,432.986633
	C821.508240,414.831177 803.958557,397.095795 787.033081,378.781952
	C767.160583,357.279449 747.762634,335.338409 728.135559,313.608704
	C725.124329,310.274963 721.987366,307.054779 718.761292,303.462341
	C730.452759,291.002045 741.803650,278.333069 754.245483,266.845642
	C772.573486,249.923721 791.641907,233.801300 810.467651,217.421906
	C821.265320,208.027405 832.264221,198.863388 843.003906,189.404190
	C844.215576,188.337036 844.950806,185.985687 844.846436,184.295288
	C844.377930,176.704697 847.126099,170.910141 853.754578,167.197906
	C860.370728,163.492584 866.736633,164.706558 872.376160,169.262253
	C891.546692,184.748444 910.176758,200.588684 925.006165,220.772095
	C938.148376,238.659073 954.823730,253.245880 973.632446,265.489471
	C988.549805,275.200073 1002.398315,286.507324 1013.515503,301.180969
z"/>
<path fill="#00C22D" opacity="1.000000" stroke="none"
	d="
M1170.995361,142.099442
	C1152.146606,162.716141 1131.963501,181.730881 1111.551514,200.566223
	C1093.729126,217.012115 1076.931396,234.586609 1059.997437,251.970840
	C1048.401123,263.875519 1037.347900,276.309143 1025.814941,288.643616
	C1017.451050,285.737427 1012.509888,280.523895 1012.891602,271.197357
	C1012.950806,269.749695 1011.393005,267.876343 1010.090698,266.790009
	C1000.774170,259.018829 991.981018,250.371185 981.800232,243.933350
	C955.029358,227.004532 933.620483,204.635651 914.176758,180.133575
	C908.524597,173.011002 903.832764,165.126450 898.700256,157.591492
	C898.232727,156.905029 897.812256,156.179138 897.285278,155.541534
	C890.276794,147.061508 889.666382,142.161850 896.872925,133.995804
	C910.532410,118.517601 924.417358,103.193474 938.957397,88.548653
	C956.786621,70.590958 974.886780,52.833591 993.835449,36.081856
	C1005.131775,26.095114 1018.058777,17.870541 1030.662476,9.468535
	C1042.569092,1.531240 1054.343628,6.690467 1057.739624,20.557581
	C1058.136230,22.177389 1059.068726,24.069080 1060.355835,25.007372
	C1079.759521,39.152615 1093.281860,58.805870 1108.813721,76.562943
	C1124.151367,94.097763 1139.302490,111.795570 1154.616333,129.351257
	C1155.496948,130.360825 1157.037598,131.051437 1158.390015,131.348251
	C1164.394531,132.666016 1168.625610,135.976486 1170.995361,142.099442
z"/>
<path fill="#00C22D" opacity="1.000000" stroke="none"
	d="
M1407.056519,305.908569
	C1414.863037,297.130188 1422.483032,288.567505 1430.589844,280.493347
	C1449.332764,261.825531 1468.283813,243.366074 1487.228149,224.901901
	C1489.718262,222.474869 1492.496338,220.253052 1495.425903,218.381851
	C1512.988281,207.164047 1527.931885,193.035904 1541.492188,177.344147
	C1542.359375,176.340714 1543.086304,175.215973 1544.391235,173.456116
	C1550.266602,179.645905 1555.619263,185.058990 1560.720093,190.699966
	C1578.569946,210.440018 1596.247192,230.337082 1614.205933,249.977020
	C1617.537964,253.620819 1621.619751,256.739899 1625.791748,259.423065
	C1636.395508,266.243011 1644.314453,275.612091 1651.383789,285.739532
	C1659.931152,297.984467 1668.084351,310.504730 1676.496582,323.161865
	C1670.735840,330.132599 1665.522339,337.560516 1658.926758,343.437469
	C1631.764893,367.639404 1606.124146,393.166901 1583.533081,421.817322
	C1573.997192,433.910889 1562.555054,444.532684 1551.674927,455.522095
	C1545.985474,461.268860 1538.939697,463.589722 1531.143799,459.811493
	C1523.590820,456.151123 1520.373535,449.877716 1520.847046,441.461639
	C1520.944214,439.735352 1520.053101,437.441559 1518.812622,436.240570
	C1513.454468,431.052917 1508.050903,425.852814 1502.206543,421.236237
	C1469.111084,395.093414 1438.551880,366.578186 1415.692749,330.656708
	C1414.366089,328.571899 1412.203247,326.872345 1410.119507,325.446686
	C1405.808105,322.496857 1404.917480,318.321930 1405.451172,313.633118
	C1405.731201,311.173798 1406.527832,308.773285 1407.056519,305.908569
z"/>
<path fill="#00C22D" opacity="1.000000" stroke="none"
	d="
M1514.242798,148.839081
	C1503.333862,161.750153 1491.961792,173.663010 1478.024536,183.196777
	C1455.951416,198.295837 1437.670898,217.828888 1418.768188,236.565292
	C1410.498901,244.761841 1402.372681,253.104416 1394.265869,261.462463
	C1388.602051,267.301727 1383.081543,273.279785 1377.199097,279.511414
	C1375.300049,277.008636 1373.281738,274.093384 1371.008545,271.392731
	C1351.721069,248.478760 1331.552856,226.719101 1308.260864,207.416595
	C1283.241699,186.682617 1255.615723,168.763092 1234.215576,143.356354
	C1250.202515,116.121155 1270.221802,92.362015 1292.992920,70.930031
	C1314.330322,50.847328 1336.023560,31.142637 1357.564697,11.276304
	C1367.988281,1.663129 1376.375122,1.783851 1386.745850,11.504660
	C1388.794556,13.424932 1391.492676,14.666901 1393.477417,16.638359
	C1400.174438,23.290712 1408.029541,29.273745 1412.999268,37.069653
	C1424.977295,55.859798 1441.057251,70.438431 1458.170166,83.945404
	C1477.693726,99.354942 1493.995605,117.643593 1508.921021,137.291656
	C1511.351807,140.491470 1512.457642,144.697586 1514.242798,148.839081
z"/>
<path fill="#00C12D" opacity="1.000000" stroke="none"
	d="
M756.395996,950.320862
	C764.206055,949.949768 771.495667,949.749207 778.438599,952.978577
	C789.894714,958.307007 797.431458,971.465881 795.486877,983.079102
	C793.111206,997.267700 782.823181,1008.028015 769.492493,1008.856995
	C741.585388,1010.592590 713.645447,1011.809387 685.713623,1013.127869
	C680.075684,1013.393982 674.414490,1013.166321 668.327515,1013.166321
	C668.327515,1028.920654 668.327515,1045.266846 668.327515,1062.408203
	C676.150024,1061.066284 683.631775,1059.840210 691.091492,1058.491699
	C709.498169,1055.164551 727.895935,1053.292480 746.648315,1055.932739
	C763.114319,1058.250854 775.914856,1073.164551 773.715515,1088.594727
	C771.216309,1106.128662 755.938232,1117.143921 738.465881,1114.445679
	C724.253601,1112.250977 710.326538,1115.240601 696.326660,1117.351440
	C681.387512,1119.604004 666.360535,1121.366821 651.319885,1122.796753
	C646.798889,1123.226685 642.103943,1121.829956 637.488831,1121.268433
	C633.543518,1120.788452 629.609009,1120.024048 625.651367,1119.875732
	C611.927002,1119.361328 599.523254,1110.987915 595.470215,1096.879272
	C592.146790,1085.310547 589.851196,1073.142334 589.311279,1061.140259
	C588.128906,1034.857788 587.963196,1008.509644 588.147034,982.193604
	C588.252686,967.079041 590.025757,951.982788 590.719788,936.863159
	C591.146057,927.575378 590.680542,918.246826 591.102600,908.958679
	C591.680908,896.231873 593.710999,883.492432 604.434265,875.177307
	C615.254211,866.787170 624.439758,854.916077 639.753296,854.268616
	C653.872253,853.671570 668.048340,853.114136 682.149414,853.712891
	C703.787842,854.631592 725.340454,855.886475 746.905640,852.427917
	C753.732483,851.333069 760.972351,850.589050 767.713745,851.650330
	C781.694214,853.851074 792.134094,867.298462 791.731323,880.821594
	C791.296143,895.433960 780.249329,908.007568 764.742737,909.597229
	C744.744995,911.647278 724.641907,912.854309 704.554260,913.756592
	C695.958069,914.142700 687.288269,912.806702 678.647583,912.332703
	C676.018005,912.188538 673.373962,912.310364 669.786438,912.310364
	C669.786438,926.427673 669.786438,940.446472 669.786438,955.409485
	C698.245972,953.742249 727.088379,952.052612 756.395996,950.320862
z"/>
<path fill="#00C12D" opacity="1.000000" stroke="none"
	d="
M1255.027222,990.036255
	C1256.306396,966.014832 1257.570190,942.461487 1258.854492,918.526794
	C1257.010376,918.526794 1255.239258,918.460632 1253.474243,918.536865
	C1235.064087,919.332092 1216.839478,919.159546 1199.718872,910.737610
	C1193.090942,907.477295 1187.646606,903.070312 1183.634399,896.930664
	C1174.899536,883.564636 1180.996948,866.670593 1196.299927,861.897339
	C1198.983887,861.060242 1201.802979,860.274658 1204.581787,860.190613
	C1215.219116,859.868958 1225.866821,859.918274 1236.507812,859.688904
	C1250.992432,859.376831 1265.472290,858.732422 1279.957642,858.601074
	C1299.268677,858.425964 1318.583130,858.548950 1337.895508,858.652649
	C1353.854614,858.738403 1369.827026,859.463379 1385.766846,858.995789
	C1397.425049,858.653687 1407.775513,860.559937 1415.303223,870.122437
	C1422.614502,879.410339 1424.239380,889.748413 1419.119873,900.605713
	C1413.965454,911.537476 1404.961426,917.509766 1393.026855,917.858765
	C1376.923828,918.329651 1360.793945,918.099731 1344.680542,917.846008
	C1340.818726,917.785217 1339.246216,918.993103 1338.931519,922.702515
	C1337.977051,933.958252 1336.676147,945.187927 1335.897461,956.454590
	C1334.532349,976.203918 1333.278687,995.964600 1332.315430,1015.736938
	C1331.594238,1030.541748 1331.349243,1045.371094 1330.989014,1060.191895
	C1330.614014,1075.620728 1325.969727,1089.850220 1317.412598,1102.426392
	C1309.698730,1113.763672 1298.365967,1119.985718 1284.342773,1117.814453
	C1271.023071,1115.752197 1262.521851,1106.906372 1257.789673,1094.619995
	C1251.287231,1077.737305 1251.466064,1060.059326 1252.285767,1042.356445
	C1252.847778,1030.217529 1253.374512,1018.076843 1253.981689,1005.940125
	C1254.239502,1000.790588 1254.663452,995.649353 1255.027222,990.036255
z"/>
<path fill="#00C22D" opacity="1.000000" stroke="none"
	d="
M1991.226440,265.649933
	C1988.312988,273.074127 1984.991333,280.117310 1982.234741,287.375153
	C1981.266235,289.925110 1980.452515,290.902252 1977.569336,291.142059
	C1956.774536,292.871460 1936.008911,291.907440 1915.197632,291.491302
	C1887.894165,290.945343 1860.720703,293.438477 1833.625366,297.192627
	C1816.353394,299.585754 1798.874390,300.569946 1781.462891,301.842072
	C1768.193481,302.811554 1754.884399,303.240845 1741.098877,303.816467
	C1741.944458,302.039398 1743.108276,300.172211 1744.649780,298.700470
	C1771.924927,272.660675 1795.122559,242.993042 1819.592285,214.462738
	C1829.555298,202.846329 1839.586182,191.243774 1848.800781,179.041641
	C1858.867432,165.711258 1876.128784,164.997437 1888.438965,170.772186
	C1903.468384,177.822525 1916.441650,188.178909 1928.033081,199.977341
	C1949.242554,221.565918 1970.059814,243.540054 1991.226440,265.649933
z"/>
<path fill="#00C22D" opacity="1.000000" stroke="none"
	d="
M76.452515,361.793945
	C85.859825,355.653625 87.121796,345.970062 87.205574,336.303955
	C96.961014,336.303955 106.243134,336.235962 115.523949,336.317078
	C140.337128,336.533905 165.150253,336.774719 189.962387,337.085968
	C203.446793,337.255096 216.932144,337.908051 230.411911,337.783722
	C266.661072,337.449554 303.057098,338.316406 338.237762,327.087708
	C338.862183,326.888397 339.554413,326.901581 340.619751,326.895416
	C339.803619,332.743591 334.942352,334.203064 330.388794,336.213287
	C326.697296,337.842926 322.663391,339.336487 319.749298,341.963959
	C311.980103,348.968933 304.762726,356.583496 297.271851,363.900269
	C281.556702,379.250183 265.706757,394.463531 250.100296,409.922882
	C235.442734,424.442261 221.104309,439.283691 206.459320,453.815948
	C201.980789,458.259979 197.016434,462.226562 192.159927,466.274261
	C186.790253,470.749695 180.778397,472.543549 174.075317,469.527893
	C167.362488,466.507874 163.962189,461.237427 163.712021,453.813995
	C163.661438,452.313385 162.927750,450.625885 162.011093,449.395477
	C145.221680,426.858521 125.295494,407.344177 104.223938,388.852020
	C94.607994,380.413177 85.853546,370.992676 76.452515,361.793945
z"/>
<path fill="#01C22D" opacity="1.000000" stroke="none"
	d="
M1760.055908,343.099915
	C1771.627075,341.909668 1783.404663,341.181946 1795.146606,340.074707
	C1812.857300,338.404541 1830.540161,336.442932 1848.239990,334.655579
	C1860.814941,333.385712 1873.380981,331.440918 1885.982056,331.151489
	C1905.273926,330.708374 1924.592651,331.584167 1943.899902,331.591766
	C1952.713257,331.595245 1961.527710,330.878265 1970.339966,330.452972
	C1972.455322,330.350891 1974.564209,330.108826 1977.397217,329.870422
	C1974.667969,340.623199 1969.681274,351.038055 1978.940186,360.793945
	C1960.825806,381.176575 1942.617798,401.270264 1924.313110,421.275574
	C1914.990112,431.464874 1905.653442,441.651215 1896.019531,451.543182
	C1889.454712,458.283569 1881.980347,463.777679 1872.224243,465.229675
	C1864.628540,466.360168 1858.461548,462.606537 1856.025513,455.249451
	C1855.467773,453.565186 1854.819214,451.626984 1853.581543,450.496582
	C1843.097778,440.921356 1835.566406,429.211395 1828.740601,416.944427
	C1818.016724,397.672272 1801.636597,383.424438 1785.858032,368.610840
	C1777.125732,360.412598 1768.771240,351.811890 1760.055908,343.099915
z"/>
<path fill="#0FB838" opacity="1.000000" stroke="none"
	d="
M404.884399,384.341553
	C411.574402,389.235901 418.296844,394.341736 424.763794,399.752930
	C435.845337,409.025421 446.889587,418.351227 457.682129,427.955109
	C460.963806,430.875305 463.366058,434.783813 466.214966,438.525940
	C446.745789,421.886230 427.226135,404.967743 407.736847,388.014374
	C406.631317,387.052673 405.774506,385.804993 404.884399,384.341553
z"/>
<path fill="#0FB838" opacity="1.000000" stroke="none"
	d="
M401.065582,381.248474
	C401.750793,381.336578 402.474884,381.756226 403.210083,382.504761
	C402.515594,382.415771 401.810059,381.997894 401.065582,381.248474
z"/>
<path fill="#0FB838" opacity="1.000000" stroke="none"
	d="
M397.470459,378.165710
	C397.797607,378.173248 398.250031,378.413635 398.827759,378.894714
	C398.500580,378.889801 398.048187,378.644196 397.470459,378.165710
z"/>
<path fill="#0FB838" opacity="1.000000" stroke="none"
	d="
M403.173218,383.094208
	C403.700409,382.964935 404.274750,383.181396 404.931335,383.714355
	C404.415833,383.833893 403.818085,383.636932 403.173218,383.094208
z"/>
<path fill="#00C22D" opacity="1.000000" stroke="none"
	d="
M341.286713,327.087280
	C341.446869,326.716400 341.935181,326.423523 342.580139,326.284637
	C342.362854,326.680847 341.988861,326.923065 341.286713,327.087280
z"/>
<path fill="#0FB838" opacity="1.000000" stroke="none"
	d="
M400.023743,380.258240
	C400.307037,380.115143 400.648956,380.254181 401.035706,380.680054
	C400.747833,380.824707 400.415131,380.682556 400.023743,380.258240
z"/>
<path fill="#0FB838" opacity="1.000000" stroke="none"
	d="
M398.984802,379.363403
	C399.219330,379.239227 399.537903,379.377380 399.945892,379.770996
	C399.713135,379.892853 399.390991,379.759277 398.984802,379.363403
z"/>
<path fill="#00C22D" opacity="1.000000" stroke="none"
	d="
M559.339355,430.955811
	C557.932922,432.533234 556.685547,434.296844 555.093567,435.657135
	C546.496094,443.003235 537.813232,450.249298 528.811279,457.823151
	C524.177185,451.587433 518.685120,445.269287 514.388245,438.222382
	C499.057373,413.079773 478.527954,392.973022 455.601044,374.847504
	C428.170013,353.161102 401.228912,330.854980 373.925995,308.510223
	C403.692047,274.905029 433.122955,241.151535 463.759399,208.530273
	C476.210541,195.272522 490.933136,184.034515 505.264191,172.688446
	C519.015137,161.801651 532.669373,166.548416 538.310364,183.154800
	C538.729309,184.388092 539.864746,185.779739 541.024414,186.297592
	C552.845154,191.576187 562.091797,200.068787 570.822388,209.357635
	C586.429749,225.962982 602.076050,242.536850 617.981262,258.855560
	C630.858154,272.067169 644.166382,284.857727 657.215271,297.903107
	C659.443665,300.130951 661.329834,302.701111 663.651917,305.339966
	C646.792969,327.426788 629.659790,349.289551 612.504944,371.135437
	C611.901489,371.903961 611.084045,372.504517 609.890381,373.589111
	C609.281860,374.355591 609.149231,374.716370 609.016602,375.077148
	C609.016663,375.077148 609.007996,375.010254 608.692261,374.987335
	C606.897278,376.275940 605.247925,377.440094 603.964844,378.921478
	C589.971375,395.078491 576.026306,411.277557 562.114075,427.504608
	C561.533752,428.181549 561.404663,429.245300 561.065308,430.128845
	C561.065308,430.128845 561.018921,430.064178 560.794434,430.088806
	C560.159790,430.394226 559.749573,430.675018 559.339355,430.955811
z"/>
<path fill="#00C22D" opacity="1.000000" stroke="none"
	d="
M325.886108,289.585144
	C310.933685,293.979401 295.794403,297.615845 279.986206,297.770203
	C265.834198,297.908386 251.687378,298.934021 237.538254,298.934418
	C212.891357,298.935059 188.243668,298.503021 163.597778,298.149536
	C141.441223,297.831757 119.286118,297.401062 97.131737,296.952698
	C93.977356,296.888855 90.830681,296.444092 86.984100,296.116272
	C87.217072,283.225311 83.487167,272.694855 68.977631,269.172638
	C80.969322,255.013168 92.791702,240.566544 105.744026,227.216187
	C124.399040,207.987915 143.849533,189.530029 163.012115,170.796127
	C172.417648,161.601013 178.804169,160.832886 190.911728,166.124115
	C204.128510,171.900101 214.697632,181.320679 225.566696,190.340759
	C242.086029,204.049896 258.552185,217.826645 274.862152,231.783600
	C292.040436,246.483643 305.835114,264.279846 319.868988,281.835724
	C321.843658,284.305939 323.786133,286.801849 325.886108,289.585144
z"/>
</svg>
