<svg version="1.1" id="Layer_1" xmlns="http://www.w3.org/2000/svg" xmlns:xlink="http://www.w3.org/1999/xlink" x="0px" y="0px"
	 width="100%" viewBox="0 0 500 150" enable-background="new 0 0 500 150" xml:space="preserve">
<path fill="#01BC2D" opacity="1.000000" stroke="none"
	d="
M39.694145,27.804119
	C44.582649,29.097336 49.508678,29.841478 53.581818,32.114174
	C57.690948,34.406952 61.326954,34.273865 65.734367,33.912006
	C72.411728,33.363781 79.203743,34.258503 85.949539,34.454433
	C87.161507,34.489628 88.459557,34.309399 89.590225,33.886990
	C93.162163,32.552528 96.585411,30.755970 100.227173,29.686289
	C107.154099,27.651670 110.276817,29.207922 109.892532,36.135021
	C109.479813,43.574459 111.833328,49.899063 114.483604,56.295677
	C122.173309,74.855247 110.794487,95.593292 93.085297,100.195335
	C92.797607,100.270096 92.569397,100.573715 93.485054,99.869629
	C93.697250,106.763863 94.280251,112.786232 93.834457,118.731461
	C93.692223,120.628365 90.968773,123.624504 89.165474,123.830200
	C85.604561,124.236374 84.717598,120.875793 84.896561,117.875557
	C85.244591,112.040848 84.646370,106.716507 80.324478,102.132187
	C77.900986,99.561516 79.022064,96.748138 81.903305,95.017540
	C83.885643,93.826859 86.040840,92.598740 88.266182,92.190140
	C103.756241,89.346024 112.487846,72.233849 104.738205,56.530796
	C102.049065,51.081818 99.256798,45.736626 103.593147,39.516018
	C103.207375,39.183212 102.821602,38.850410 102.435829,38.517605
	C97.882248,40.156166 93.366074,41.912811 88.755974,43.372925
	C87.006683,43.926964 85.043510,43.923573 83.173759,43.958897
	C75.352097,44.106655 67.527031,44.298744 59.707489,44.183807
	C57.640350,44.153427 55.383804,43.443676 53.574532,42.413250
	C50.349998,40.576790 47.400089,38.258137 44.335331,36.141136
	C43.731293,36.393246 43.127254,36.645355 42.523216,36.897465
	C42.335072,39.815205 42.309528,42.755566 41.907772,45.643585
	C41.581478,47.989101 41.407043,50.702774 40.119049,52.505817
	C35.228699,59.351757 34.197670,73.574020 42.558147,81.829903
	C47.889912,87.094963 53.550785,91.220589 61.003983,92.826103
	C66.187187,93.942627 66.409599,95.833366 64.375519,100.631760
	C62.822495,104.295326 62.551678,108.543907 61.989441,112.571198
	C61.623299,115.193840 62.291454,118.062553 61.490753,120.489258
	C60.897606,122.286903 58.685844,123.550476 57.195129,125.051971
	C55.766701,123.500755 54.102802,122.097015 53.002438,120.340294
	C52.389828,119.362267 52.715706,117.796402 52.575199,115.913330
	C40.557537,117.519424 32.446152,111.475868 26.062727,102.409454
	C25.191454,101.171989 25.262739,99.270897 24.897617,97.677063
	C26.571768,97.819565 28.544588,97.444656 29.862030,98.205124
	C33.310463,100.195679 36.455872,102.706635 39.753246,104.964630
	C43.737659,107.693077 48.049358,107.958397 52.727249,106.780212
	C53.012501,104.611855 53.269276,102.659935 53.541382,100.591469
	C41.201725,97.147125 34.302929,88.036880 30.327379,76.720428
	C27.444849,68.515259 28.342451,60.078197 31.983116,51.948376
	C33.113697,49.423714 33.359852,46.367874 33.444950,43.538197
	C33.623684,37.594620 34.119251,31.898800 39.694145,27.804119
z"/>
<path fill="#F5F5F6" opacity="1.000000" stroke="none"
	d="
M194.134277,35.014225
	C187.892899,39.178638 182.337952,43.533058 177.972610,50.609970
	C183.734451,52.621807 188.947708,54.105949 193.873199,56.250874
	C199.458984,58.683338 205.303268,61.021366 210.106750,64.634666
	C217.396637,70.118301 218.277176,79.267906 213.387787,86.994133
	C206.192734,98.363739 191.806488,105.453186 180.449783,102.995560
	C177.624588,102.384171 174.961975,101.021362 173.192825,100.363792
	C181.371811,96.680428 189.900070,92.978867 198.279083,88.965683
	C200.299240,87.998116 201.983429,86.144875 203.550415,84.448021
	C209.590332,77.907562 208.670135,71.434441 200.800323,67.455055
	C196.387115,65.223518 191.519623,63.893997 186.867050,62.131065
	C183.142380,60.719730 179.281860,59.564838 175.750992,57.767075
	C169.798889,54.736523 168.538406,50.060177 172.506744,44.607262
	C179.463028,35.048607 188.721786,28.367691 200.181396,25.285654
	C204.724945,24.063673 209.684021,23.724173 212.729172,27.755703
	C206.499146,30.168625 200.475342,32.501667 194.134277,35.014225
z"/>
<path fill="#F4F5F5" opacity="1.000000" stroke="none"
	d="
M473.848999,88.952049
	C474.158691,89.670868 474.202881,90.898979 473.926178,90.976120
	C465.166382,93.418083 456.202454,94.948761 447.454926,91.670074
	C436.151520,87.433395 433.541626,73.269470 442.414154,65.048737
	C449.837402,58.170856 458.963135,55.869606 468.794647,57.419613
	C471.365082,57.824860 475.110992,60.064766 475.594696,62.106888
	C476.225891,64.771782 475.078094,69.225037 473.044983,70.875870
	C468.493073,74.571869 462.982269,77.128059 457.731567,79.901497
	C455.717712,80.965210 453.348419,81.356049 450.430664,82.277946
	C457.888519,86.856918 465.523743,88.347244 473.848999,88.952049
M464.481964,69.003914
	C466.591644,67.308929 468.701294,65.613937 471.689911,63.212757
	C464.015961,60.633186 458.387115,62.132118 453.150604,65.827477
	C449.418854,68.460976 446.628235,71.668480 447.337646,77.350159
	C453.122803,74.550423 458.481079,71.957291 464.481964,69.003914
z"/>
<path fill="#F5F5F6" opacity="1.000000" stroke="none"
	d="
M320.279205,86.605087
	C319.057922,87.356255 317.970581,88.307671 317.109619,89.432373
	C309.068115,99.936958 295.799011,98.622009 291.104523,86.310432
	C289.183441,81.272316 289.259186,75.365677 289.108795,69.835594
	C289.071686,68.470901 291.701019,67.033691 293.104584,65.629814
	C294.226624,67.098640 295.894684,68.415192 296.355743,70.068359
	C297.284729,73.399368 297.233337,77.004730 298.170959,80.332176
	C299.844116,86.269897 302.928833,88.359489 307.251404,87.099503
	C312.063324,85.696861 315.101379,80.221146 313.813324,75.234161
	C313.690582,74.758980 313.418732,74.322502 313.218109,73.867188
	C311.947998,70.984818 310.824432,67.852478 314.587372,66.185562
	C318.334229,64.525764 319.906830,67.644035 321.391815,70.291603
	C326.233978,78.924736 332.389313,86.971657 332.491730,98.350670
	C328.500549,94.529022 324.509338,90.707375 320.279205,86.605087
z"/>
<path fill="#F7F8F8" opacity="1.000000" stroke="none"
	d="
M272.032166,84.886658
	C268.690063,88.106110 265.860016,92.244507 262.080048,93.482414
	C257.087891,95.117294 251.286423,95.144745 245.952972,94.626602
	C240.793182,94.125328 235.929794,91.810989 234.646088,85.773178
	C233.358673,79.717957 236.878525,75.617210 240.901367,72.070793
	C247.067154,66.635216 260.662628,66.365952 267.079102,71.492615
	C271.171234,74.762222 273.675568,78.924133 272.032166,84.886658
M258.985291,84.801414
	C260.298004,83.235146 263.017334,80.791618 262.681641,80.253387
	C261.170715,77.830650 258.593170,74.037300 256.765045,74.228432
	C251.198700,74.810387 246.004929,77.275124 243.732391,83.553291
	C248.458939,86.623123 253.323257,85.817001 258.985291,84.801414
z"/>
<path fill="#F7F7F8" opacity="1.000000" stroke="none"
	d="
M346.730713,75.933884
	C346.864532,69.481758 348.456879,68.536201 353.758057,71.338387
	C360.817780,58.898121 374.649658,57.330864 385.106018,68.090973
	C382.612122,67.914635 380.731812,67.909050 378.893005,67.629860
	C370.431152,66.345100 361.631897,72.876129 360.918243,81.416557
	C360.560699,85.695061 360.859558,90.049011 361.126617,94.352386
	C361.330872,97.643501 360.302948,100.165375 357.011932,100.743301
	C353.471222,101.365067 351.522491,99.314880 350.837799,95.812775
	C349.564941,89.301941 348.141327,82.820572 346.730713,75.933884
z"/>
<path fill="#F5F6F7" opacity="1.000000" stroke="none"
	d="
M403.153564,77.439255
	C397.444824,89.996841 402.186676,94.686050 421.661163,96.631935
	C415.497772,100.301514 408.856537,102.589699 401.566833,101.027924
	C395.221344,99.668442 392.612701,94.443054 391.355194,88.715866
	C389.002380,78.000038 397.651093,65.000549 408.449341,63.084869
	C410.404907,62.737949 412.636688,63.948280 414.740967,64.439682
	C413.599792,66.223282 412.694031,68.229385 411.265228,69.741096
	C408.794006,72.355774 405.998322,74.663788 403.153564,77.439255
z"/>
</svg>
