<svg version="1.1" id="Layer_1" xmlns="http://www.w3.org/2000/svg" xmlns:xlink="http://www.w3.org/1999/xlink" x="0px" y="0px"
	 width="100%" viewBox="0 0 350 350" enable-background="new 0 0 350 350" xml:space="preserve">
<path fill="#00BF2D" opacity="1.000000" stroke="none" 
	d="
M108.599457,328.471466 
	C87.270813,330.628113 66.407158,332.813843 45.520245,334.748535 
	C40.567131,335.207367 35.467758,335.325653 30.564117,334.657654 
	C27.124632,334.189117 23.668060,332.507324 20.642832,330.669739 
	C16.711956,328.282043 16.557100,324.866089 18.793968,320.764771 
	C49.096592,265.204865 79.313499,209.598145 109.512581,153.981812 
	C122.066551,130.861710 135.182724,108.012474 146.758194,84.409836 
	C152.635437,72.426071 155.655457,59.041782 159.976990,46.293968 
	C162.005646,40.309750 163.312775,33.906963 166.395493,28.523361 
	C168.077759,25.585455 172.597733,23.326662 176.181976,22.685801 
	C179.872467,22.025942 182.124481,25.545191 183.258118,29.211864 
	C183.790695,30.934515 184.634109,32.660275 185.716522,34.098824 
	C201.506332,55.083904 211.664337,79.014305 221.839493,102.937737 
	C238.616318,142.382736 258.844940,180.100418 279.095520,217.818665 
	C298.317047,253.620163 317.244720,289.579559 336.235748,325.504333 
	C337.141083,327.216858 338.001465,329.320190 337.835938,331.146667 
	C337.580750,333.963501 337.204468,338.115936 335.436127,339.095093 
	C333.401825,340.221527 329.787415,338.558319 326.877594,338.009674 
	C325.610596,337.770782 324.411926,337.097168 323.143738,336.947632 
	C299.179230,334.122284 275.225830,331.189636 251.235748,328.597717 
	C219.054016,325.120758 186.767334,323.985291 154.425995,325.484985 
	C139.290009,326.186859 124.178520,327.417633 108.599457,328.471466 
M152.913666,106.503624 
	C114.000000,177.357498 75.086334,248.211365 36.174625,319.061646 
	C83.811798,315.986023 130.226410,312.200500 176.717865,310.209167 
	C223.361664,308.211395 269.530396,315.314392 316.988434,321.853119 
	C315.606598,318.815369 315.019623,317.325714 314.275726,315.919067 
	C300.419647,289.719421 286.320190,263.645630 272.727142,237.310364 
	C252.722244,198.552689 232.832352,159.731308 213.379990,120.694626 
	C203.734970,101.339119 195.339233,81.364510 186.018890,61.841576 
	C183.418747,56.395130 179.537643,51.560219 175.524384,45.326778 
	C171.004257,67.621475 162.995346,87.060768 152.913666,106.503624 
z"/>
<path fill="#00BF2D" opacity="1.000000" stroke="none" 
	d="
M160.136414,180.116364 
	C161.195129,169.546753 162.325531,159.457870 163.235275,149.349106 
	C163.561249,145.727173 163.497192,142.051926 163.360641,138.410431 
	C163.093811,131.295410 167.132584,125.790474 173.372345,125.039368 
	C179.559479,124.294586 185.522552,128.715302 185.780869,135.883133 
	C186.125580,145.448837 185.214539,155.071518 184.628616,164.656631 
	C183.340881,185.722809 179.815781,206.678665 181.889755,227.906265 
	C182.572433,234.893433 178.120758,240.414978 171.846207,241.117401 
	C165.403275,241.838684 159.403229,237.192169 159.176407,229.916138 
	C158.778122,217.139542 159.230270,204.334366 159.425568,191.542664 
	C159.481354,187.888840 159.879700,184.240219 160.136414,180.116364 
z"/>
<path fill="#00BE2D" opacity="1.000000" stroke="none" 
	d="
M178.017838,288.219269 
	C173.623093,288.482300 169.418594,289.317902 165.571075,288.491425 
	C160.573761,287.418091 156.978775,283.947937 156.826996,278.326721 
	C156.670135,272.517426 158.235748,267.407867 164.023422,264.658569 
	C166.116135,263.664459 168.199799,262.530670 170.415268,261.937592 
	C178.012558,259.903809 182.825317,262.082611 186.076340,268.751648 
	C189.106964,274.968567 187.451736,281.646942 181.754578,285.956390 
	C180.700073,286.754028 179.499802,287.358978 178.017838,288.219269 
z"/>
</svg>