<svg version="1.1" id="Layer_1" xmlns="http://www.w3.org/2000/svg" xmlns:xlink="http://www.w3.org/1999/xlink" x="0px" y="0px"
	 width="100%" viewBox="0 0 500 100" enable-background="new 0 0 500 100" xml:space="preserve">
<path fill="#F7F8F8" opacity="1.000000" stroke="none"
	d="
M190.546082,90.900650
	C184.218201,93.123985 180.983521,92.038231 178.388245,85.799324
	C174.568680,76.617165 171.253296,67.215569 167.984726,57.816471
	C164.277481,47.155899 160.858109,36.395195 157.315445,25.677412
	C156.950134,24.572208 156.462143,23.486298 156.265274,22.350830
	C155.764252,19.461025 154.371246,15.837835 158.102051,14.483908
	C161.935242,13.092823 163.250549,16.730179 164.291382,19.451317
	C169.569931,33.251312 174.670013,47.119453 179.877151,60.946949
	C181.626770,65.593018 183.507706,70.189629 185.795761,75.993881
	C186.804520,72.539215 187.419418,70.184479 188.179260,67.877487
	C190.510834,60.798462 194.645355,59.712120 199.858963,64.957474
	C203.378159,68.498085 206.507568,72.426109 210.026794,75.966675
	C215.507538,81.480675 218.395279,81.064873 222.096695,74.194023
	C226.933838,65.214905 228.236465,55.309753 229.031326,45.348873
	C230.083832,32.158905 230.935242,18.952888 231.873077,5.753768
	C232.415115,5.645838 232.957169,5.537907 233.499222,5.429976
	C234.519333,8.062743 235.819199,10.623850 236.514923,13.339720
	C241.653244,33.397827 240.479126,53.267498 233.865997,72.757629
	C232.465775,76.884377 229.875305,80.841957 227.027298,84.192398
	C221.613113,90.561707 215.233810,91.006760 208.486725,86.035141
	C206.359039,84.467331 204.503372,82.509972 202.626938,80.627510
	C200.887482,78.882446 199.286514,76.999321 197.902618,75.481857
	C195.522690,80.614929 193.191818,85.642197 190.546082,90.900650
z"/>
<path fill="#00C02D" opacity="1.000000" stroke="none"
	d="
M74.250427,77.250290
	C66.827866,82.902374 59.677010,88.321243 52.542038,93.760948
	C49.109322,96.378059 45.792702,94.931343 45.302326,90.231041
	C44.872360,86.109703 45.158287,81.919205 44.946613,77.768501
	C44.346863,66.007950 43.619743,54.253857 43.034561,42.492653
	C42.945107,40.694862 42.979794,38.736237 43.598644,37.093723
	C44.553356,34.559769 46.122547,33.002216 49.355156,34.620522
	C62.499405,41.200787 75.803154,47.464222 88.910301,54.116005
	C94.724434,57.066635 94.418884,60.672077 89.240120,64.466011
	C84.053101,68.265984 79.410110,72.808563 74.250427,77.250290
z"/>
<path fill="#F7F7F8" opacity="1.000000" stroke="none"
	d="
M326.195496,67.647202
	C326.151672,60.236000 326.151672,53.288006 326.151672,46.386585
	C321.713806,45.862659 317.941559,45.442715 314.176575,44.965816
	C310.269989,44.470985 307.900055,41.978294 308.174622,38.295547
	C308.460907,34.455906 311.980988,34.896889 314.832581,34.923325
	C318.323700,34.955688 321.815338,34.931034 325.643311,34.931034
	C326.065338,29.987860 326.458984,24.753288 326.982330,19.531713
	C327.214203,17.218765 327.326904,14.773599 328.196625,12.680508
	C328.982025,10.790258 330.725372,9.298046 332.046295,7.630314
	C332.933228,9.432704 334.508423,11.206244 334.585388,13.042582
	C334.884308,20.174189 334.707123,27.325752 334.707123,34.638092
	C342.030212,34.638092 348.404388,34.638092 355.728760,34.638092
	C350.901520,42.648544 344.207092,45.028702 336.323883,45.330959
	C334.353638,58.906925 341.158386,73.421677 330.105225,86.321945
	C328.712982,79.763351 327.476166,73.936882 326.195496,67.647202
z"/>
<path fill="#F5F5F6" opacity="1.000000" stroke="none"
	d="
M431.590149,65.487823
	C429.845032,63.025719 428.313385,60.866219 426.494415,58.301651
	C422.875031,62.364975 422.727051,66.795631 423.259277,71.430923
	C423.523804,73.734550 424.359253,76.300797 423.650970,78.290710
	C423.011108,80.088554 420.647583,82.362900 418.996063,82.402130
	C417.365692,82.440849 414.298737,80.015091 414.219849,78.544098
	C413.235413,60.181461 408.788422,41.852707 413.104156,23.410830
	C413.645782,21.096466 414.934753,18.956995 415.877441,16.736488
	C416.307831,16.868929 416.738220,17.001369 417.168640,17.133810
	C418.152161,29.110863 419.135681,41.087914 420.076355,52.542889
	C423.733307,52.248352 426.882172,51.191872 429.426300,52.011837
	C432.059326,52.860470 434.540161,55.192638 436.312836,57.477058
	C439.455139,61.526543 442.170502,65.937294 444.773743,70.367722
	C448.202606,76.203148 448.117523,82.304008 444.657990,90.196541
	C439.993896,81.340996 435.898743,73.565712 431.590149,65.487823
z"/>
<path fill="#F6F6F7" opacity="1.000000" stroke="none"
	d="
M296.939026,74.105652
	C296.956116,76.875221 296.956116,79.193344 296.956116,81.511459
	C296.600464,81.817642 296.244781,82.123833 295.889130,82.430016
	C293.762695,79.689529 291.636292,76.949043 289.389709,74.053719
	C283.058868,80.286049 276.799194,84.364540 268.550446,84.079185
	C259.702209,83.773102 255.158432,76.499756 258.870544,68.527901
	C262.998627,59.662811 276.903442,51.941742 286.638428,53.261658
	C290.804626,53.826538 294.155029,55.080078 294.385010,60.511581
	C294.571686,64.920357 296.028473,69.275352 296.939026,74.105652
M276.585938,74.419998
	C285.708984,71.524231 287.433868,69.337372 285.463776,63.164433
	C276.619934,63.409763 269.052734,68.340904 267.982910,75.093285
	C270.653778,74.964455 273.225067,74.840431 276.585938,74.419998
z"/>
<path fill="#F7F7F8" opacity="1.000000" stroke="none"
	d="
M392.242188,59.260059
	C388.337189,60.767071 384.631165,61.863525 381.341461,63.704044
	C379.687500,64.629395 377.780548,66.947006 377.844727,68.561188
	C377.904541,70.065941 380.182648,72.252106 381.903870,72.786362
	C388.912750,74.961807 396.082733,76.618019 402.661438,78.327393
	C394.217255,85.740105 379.389587,87.011650 370.944672,78.831436
	C365.635864,73.689026 364.670380,66.109604 369.227112,60.343990
	C374.688202,53.434074 382.465240,51.104660 390.876831,51.271610
	C392.839539,51.310562 394.754333,53.765297 396.691162,55.108540
	C395.331848,56.458008 393.972504,57.807465 392.242188,59.260059
z"/>
</svg>
